<?xml version="1.0" standalone="no"?>
<!DOCTYPE svg PUBLIC "-//W3C//DTD SVG 1.1//EN" "http://www.w3.org/Graphics/SVG/1.1/DTD/svg11.dtd" >
<svg xmlns="http://www.w3.org/2000/svg" xmlns:xlink="http://www.w3.org/1999/xlink" version="1.1">
<metadata></metadata>
<defs>
<font id="chalet-londonnineteensixtyRg" horiz-adv-x="1175" >
<font-face units-per-em="2048" ascent="1638" descent="-410" />
<missing-glyph horiz-adv-x="604" />
<glyph horiz-adv-x="0" />
<glyph horiz-adv-x="682" />
<glyph horiz-adv-x="794" d="M86 1475q4 -57 27.5 -105.5t64.5 -84.5t96.5 -56.5t122.5 -20.5q68 0 123 20.5t96 56.5t65 84.5t28 105.5h-88q-16 -70 -67.5 -109t-156.5 -39q-86 0 -139 39t-76 109h-96z" />
<glyph horiz-adv-x="358" d="M86 1217h186v204h-186v-204z" />
<glyph horiz-adv-x="563" d="M86 1767q0 -41 15.5 -75.5t41 -61t61.5 -42t77 -15.5t76.5 15.5t62 42t42 61t15.5 75.5q0 82 -57.5 139.5t-138.5 57.5q-82 0 -138.5 -57.5t-56.5 -139.5zM176 1767q0 45 31 76t74 31t73.5 -31t30.5 -76q0 -43 -30.5 -73.5t-73.5 -30.5t-74 30.5t-31 73.5z" />
<glyph unicode="&#xa;" horiz-adv-x="851" d="M86 1196h137l211 279h-213zM418 1196h137l211 279h-213z" />
<glyph horiz-adv-x="460" d="M85 -247q1 -40 17 -70q16 -33 48 -50.5t70 -21.5t78 6t77 35v72q-49 -31 -102.5 -28t-71.5 38q-12 23 -7 55.5t26.5 68.5t59 72.5t91.5 69.5h-113q-61 -35 -100 -78t-56.5 -86t-16.5 -83z" />
<glyph horiz-adv-x="749" d="M86 1487l213 -293h152l213 293h-158l-131 -187l-131 187h-158z" />
<glyph unicode="&#xd;" horiz-adv-x="1024" />
<glyph horiz-adv-x="409" d="M102 571h205v213h-205v-213z" />
<glyph horiz-adv-x="1060" d="M39 885h143v-885h172v885h383v-885h172v1051h-555v41q0 53 12.5 116.5t53.5 100.5q59 55 178 47v157q-184 20 -295 -79q-121 -109 -121 -342v-41h-143v-166zM737 1214h172v207h-172v-207z" />
<glyph horiz-adv-x="1081" d="M39 885h143v-885h172v885h240v166h-240v41q0 53 12.5 116.5t53.5 100.5q59 55 178 47v157q-184 20 -295 -79q-121 -109 -121 -342v-41h-143v-166zM756 0h172v1524h-172v-1524z" />
<glyph horiz-adv-x="1155" d="M20 481l179 109v-590h905v168h-731v526l344 207v137l-344 -209v592h-174v-696l-179 -107v-137z" />
<glyph horiz-adv-x="567" d="M20 481l177 109v-590h174v694l176 105v137l-176 -107v592h-174v-696l-177 -107v-137z" />
<glyph horiz-adv-x="1191" d="M55 0h1082v168h-861l857 1094v159h-1051v-166h836l-863 -1099v-156zM319 1880l213 -293h152l213 293h-158l-131 -186l-131 186h-158z" />
<glyph horiz-adv-x="962" d="M55 0h852v168h-618l600 729v158h-817v-166h590l-607 -744v-145zM219 1487l213 -293h152l213 293h-158l-131 -187l-131 187h-158z" />
<glyph unicode=" "  horiz-adv-x="604" />
<glyph unicode="&#x09;" horiz-adv-x="604" />
<glyph unicode="&#xa0;" horiz-adv-x="604" />
<glyph unicode="!" horiz-adv-x="555" d="M180 0h195v203h-195v-203zM190 362h175v1059h-175v-1059z" />
<glyph unicode="&#x22;" horiz-adv-x="649" d="M94 1421l29 -510h106l29 510h-164zM391 1421l29 -510h106l29 510h-164z" />
<glyph unicode="#" horiz-adv-x="1089" d="M12 336h176l-38 -260h165l39 260h273l-37 -260h166l39 260h174l22 162h-174l62 420h174l24 161h-174l39 267h-168l-39 -267h-272l39 267h-168l-37 -267h-176l-23 -161h174l-61 -420h-174zM379 498l59 420h275l-62 -420h-272z" />
<glyph unicode="$" horiz-adv-x="1009" d="M47 498q0 -197 148 -314q102 -78 241 -90v-119h117v119q158 12 256 90q66 49 100.5 119t34.5 154q0 80 -26.5 136t-76.5 96t-123 67.5t-165 48.5v358q90 -14 137 -67.5t47 -141.5h174q0 76 -24.5 140.5t-70.5 113.5t-112.5 81t-150.5 40v127h-117v-125 q-164 -16 -262 -108.5t-98 -233.5q0 -78 29.5 -133t78.5 -94t115 -64.5t137 -42.5v-393q-104 16 -160.5 78.5t-56.5 157.5h-172zM248 993q0 68 49 113t139 57v-332q-109 31 -148.5 70t-39.5 92zM553 262v369q72 -18 115 -38t65.5 -41.5t29.5 -46.5t7 -52q0 -74 -51 -126.5 t-166 -64.5z" />
<glyph unicode="%" horiz-adv-x="1658" d="M49 1077q0 -72 27.5 -134t75 -109.5t110 -74t133.5 -26.5q70 0 133.5 26.5t109.5 74t73.5 110t27.5 133.5q0 72 -27.5 134.5t-73.5 109.5t-109.5 73.5t-133.5 26.5q-72 0 -134 -26.5t-109.5 -73.5t-75 -109.5t-27.5 -134.5zM205 1077q0 41 15.5 77t41 63.5t60 43 t73.5 15.5t74 -15.5t60.5 -43t40 -63.5t14.5 -77t-14.5 -77.5t-40 -63.5t-60.5 -42t-74 -15t-73.5 15t-60 42t-41 63.5t-15.5 77.5zM356 0h166l781 1421h-166zM920 344q0 -72 26.5 -134.5t73.5 -109.5t109.5 -73.5t134.5 -26.5t134 26.5t109 73.5t74 109.5t27 134.5 t-27 134.5t-74 109.5t-109.5 74.5t-133.5 27.5q-72 0 -134.5 -27.5t-109.5 -74.5t-73.5 -109.5t-26.5 -134.5zM1073 344q0 41 15.5 78t41 63.5t60.5 42t74 15.5t73.5 -15.5t60 -42t41 -63.5t15.5 -78t-15.5 -77t-41 -63.5t-60 -43t-73.5 -15.5t-74 15.5t-60.5 43t-41 63.5 t-15.5 77z" />
<glyph unicode="&#x26;" horiz-adv-x="1323" d="M98 406q0 -94 41 -173t109.5 -136.5t160 -89.5t191.5 -32q117 0 216 40t175 112l105 -127h223l-221 270q35 63 51 137t16 154v109h-168v-109q0 -39 -5 -74.5t-15 -70.5l-318 385q119 70 193 149.5t74 200.5q0 68 -23.5 124t-66.5 96t-102.5 62.5t-131.5 22.5t-133 -24.5 t-107.5 -67.5t-72 -101.5t-25.5 -125.5q0 -70 31 -136.5t84 -130.5l24 -30q-61 -37 -117.5 -78t-97.5 -93.5t-65.5 -117t-24.5 -145.5zM274 406q0 88 53.5 160.5t178.5 148.5l381 -463q-51 -53 -124 -83t-163 -30q-72 0 -131 21.5t-102 58.5t-68 85t-25 102zM442 1137 q0 72 46.5 115.5t111.5 43.5q70 0 112 -42t42 -107q0 -29 -9.5 -54.5t-31 -52t-59.5 -55.5t-95 -61l-47 57q-70 82 -70 156z" />
<glyph unicode="'" horiz-adv-x="352" d="M94 1421l29 -510h106l29 510h-164z" />
<glyph unicode="(" horiz-adv-x="643" d="M119 690q0 -133 24.5 -264t70.5 -252t109.5 -226.5t141.5 -185.5h153q-145 190 -228 427t-83 501t83 499.5t228 428.5h-153q-78 -80 -141.5 -185.5t-109.5 -226.5t-70.5 -253t-24.5 -263z" />
<glyph unicode=")" horiz-adv-x="643" d="M27 -238h151q78 80 141.5 185.5t109.5 226.5t70.5 252t24.5 264q0 131 -24.5 263t-70.5 253t-109.5 226.5t-141.5 185.5h-151q145 -193 227 -428.5t82 -499.5t-82 -500.5t-227 -427.5z" />
<glyph unicode="*" horiz-adv-x="710" d="M53 1083l207 4l-106 -176l102 -59l100 182l99 -182l104 59l-108 176l206 -2v117l-206 -4l108 178l-104 58l-101 -181l-98 181l-102 -58l106 -178l-207 4v-119z" />
<glyph unicode="+" horiz-adv-x="1042" d="M86 481h350v-352h172v352h350v168h-350v352h-172v-352h-350v-168z" />
<glyph unicode="," horiz-adv-x="409" d="M102 0h117v-47q0 -53 -26.5 -86t-75.5 -41v-88q35 2 69.5 17.5t61 41t43 64.5t16.5 92v258h-205v-211z" />
<glyph unicode="-" horiz-adv-x="735" d="M90 481h555v168h-555v-168z" />
<glyph unicode="." horiz-adv-x="409" d="M102 0h205v211h-205v-211z" />
<glyph unicode="/" horiz-adv-x="561" d="M-8 0h172l432 1524h-174z" />
<glyph unicode="0" horiz-adv-x="1230" d="M94 717q0 -186 40 -325.5t110.5 -231.5t165.5 -138.5t204 -46.5q111 0 206 46.5t166 138.5t111 231t40 326q0 186 -40 324.5t-111 230.5t-166 138t-206 46q-109 0 -204 -46t-165.5 -138t-110.5 -230.5t-40 -324.5zM266 717q0 281 95 430t253 149q160 0 254.5 -149.5 t94.5 -429.5q0 -283 -94.5 -432.5t-254.5 -149.5q-158 0 -253 149.5t-95 432.5z" />
<glyph unicode="1" horiz-adv-x="690" d="M59 1135h209v-1135h174v1421h-159q-8 -80 -69.5 -113.5t-154.5 -37.5v-135z" />
<glyph unicode="2" horiz-adv-x="1142" d="M72 0h968v168h-784q6 55 33.5 103t74 91.5t107.5 83t133 80.5q102 57 185 108.5t140.5 110t88.5 130t31 169.5q0 86 -32 161t-91.5 130.5t-145.5 88t-194 32.5q-119 0 -209 -40t-151.5 -107.5t-94.5 -157.5t-33 -190h178q2 68 20.5 129t56.5 107t95.5 72.5t137.5 26.5 q82 0 137 -23.5t89 -59t48 -81t14 -88.5q0 -55 -15 -98t-55 -84t-108.5 -87t-175.5 -103q-88 -47 -169 -100.5t-143.5 -121t-99 -155.5t-36.5 -207v-88z" />
<glyph unicode="3" horiz-adv-x="1167" d="M72 416q6 -92 39.5 -172t95 -139.5t154 -94.5t214.5 -35q117 0 211.5 35t161 94.5t101 140.5t34.5 173q0 135 -58 226t-169 132q86 41 131 116t45 175q0 82 -29.5 153.5t-86 124t-140.5 82t-190 29.5q-104 0 -191.5 -32.5t-149 -91t-96 -140.5t-34.5 -178h180 q0 55 16.5 105t51 90t90 63.5t133.5 23.5q135 0 203.5 -62.5t68.5 -166.5q0 -109 -83 -168t-281 -59v-160h65q106 0 175 -22.5t108 -59.5t53 -84t14 -96q0 -59 -23.5 -110.5t-67.5 -89.5t-105.5 -59.5t-137.5 -21.5q-84 0 -143 21.5t-97 58.5t-57.5 88t-25.5 111h-180z" />
<glyph unicode="4" horiz-adv-x="1136" d="M47 334h717v-334h174v334h135v168h-135v919h-184l-707 -934v-153zM266 502l498 655v-655h-498z" />
<glyph unicode="5" horiz-adv-x="1118" d="M78 373q6 -76 41 -147.5t94 -127t146 -89.5t198 -34q98 0 186 34t156 97.5t106.5 153.5t38.5 203q0 104 -33.5 193t-93 153.5t-143.5 100.5t-184 36q-78 0 -146.5 -23.5t-119.5 -62.5l53 395h584v166h-738l-94 -741l154 -59q49 72 126.5 116.5t163.5 44.5 q68 0 122.5 -23.5t94 -66.5t61 -101.5t21.5 -127.5q0 -70 -22.5 -129.5t-64.5 -102.5t-100 -66.5t-128 -23.5t-123 19.5t-90 52.5t-58.5 75t-27.5 85h-180z" />
<glyph unicode="6" horiz-adv-x="1167" d="M94 643q0 -334 154 -508q68 -78 161 -119t203 -41q100 0 188.5 36t153.5 102q68 66 105 159t37 199q0 219 -135 358q-66 68 -153 104t-187 36q-92 0 -188.5 -46t-160.5 -135q8 111 36 204t72 161t106.5 105.5t140.5 37.5q66 0 111.5 -19.5t77.5 -50t49.5 -69.5t27.5 -76 h178q-25 135 -102 228q-125 147 -342 147q-260 0 -404 -231q-129 -213 -129 -582zM297 471q0 74 25.5 135.5t69.5 105.5t102.5 69.5t123.5 25.5q72 0 128.5 -25.5t95.5 -70.5t59.5 -106.5t20.5 -133.5q0 -152 -82 -244t-222 -92q-72 0 -131 24.5t-101 69.5t-65.5 106.5 t-23.5 135.5z" />
<glyph unicode="7" horiz-adv-x="1040" d="M35 1253h710q-109 -104 -196.5 -246.5t-150 -306t-100.5 -343t-46 -357.5h176q10 197 53 382t115 349t171 300.5t222 232.5v157h-954v-168z" />
<glyph unicode="8" horiz-adv-x="1134" d="M72 414q0 -90 35.5 -170t101 -139.5t157 -94.5t201.5 -35q111 0 202 35t156.5 94.5t101.5 139.5t36 170q0 121 -58.5 215t-156.5 151q72 53 115 129t43 168q0 78 -32 147.5t-89.5 121t-138 81t-179.5 29.5q-98 0 -178 -29.5t-138 -81t-90 -121t-32 -147.5 q0 -92 43 -167.5t115 -129.5q-98 -57 -156.5 -151t-58.5 -215zM246 416q0 61 23.5 112.5t66.5 89t101.5 58t129.5 20.5q72 0 131.5 -20.5t101.5 -58t65.5 -89t23.5 -112.5q0 -70 -27.5 -122t-73 -88t-103.5 -53.5t-118 -17.5q-59 0 -117.5 17.5t-103.5 53.5t-72.5 88 t-27.5 122zM303 1075q0 98 74 159.5t190 61.5q117 0 190.5 -61t73.5 -160q0 -55 -22.5 -96t-60 -69.5t-85 -43t-96.5 -14.5t-96 14.5t-85 43t-60.5 69.5t-22.5 96z" />
<glyph unicode="9" horiz-adv-x="1167" d="M78 961q0 -109 36 -199t100.5 -155.5t153.5 -102.5t193 -37q51 0 103.5 12.5t98.5 36t83 55t59 70.5q-6 -86 -24.5 -175t-58.5 -162t-104.5 -119t-162.5 -46q-121 0 -185.5 54.5t-84.5 123.5h-179q14 -72 50.5 -133t92.5 -108t132 -74t172 -27q129 0 226.5 53.5t163 155 t98 247t32.5 329.5q0 152 -23.5 262.5t-82.5 206.5q-66 109 -170.5 168t-237.5 59q-104 0 -192 -37t-152.5 -102.5t-100.5 -156.5t-36 -199zM252 961q0 152 85 243.5t224 91.5q70 0 128.5 -25.5t99 -70.5t64.5 -106t24 -133q0 -74 -23 -135.5t-63.5 -105.5t-99 -69.5 t-130.5 -25.5t-129 25.5t-97 69.5t-61.5 105.5t-21.5 135.5z" />
<glyph unicode=":" horiz-adv-x="464" d="M129 0h205v211h-205v-211zM129 807h205v211h-205v-211z" />
<glyph unicode=";" horiz-adv-x="464" d="M129 0h117v-47q0 -53 -26.5 -86t-76.5 -41v-88q37 2 71 17.5t60.5 41t43 64.5t16.5 92v258h-205v-211zM129 807h205v211h-205v-211z" />
<glyph unicode="&#x3c;" horiz-adv-x="929" d="M63 471l793 -358v182l-623 268v2l623 269v182l-793 -357v-188z" />
<glyph unicode="=" horiz-adv-x="991" d="M90 283h811v166h-811v-166zM90 682h811v168h-811v-168z" />
<glyph unicode="&#x3e;" horiz-adv-x="929" d="M72 113l794 358v188l-794 357v-182l46 -20q46 -19 115.5 -50t150.5 -65.5t150.5 -64.5t92.5 -40l69 -31l-624 -268v-182z" />
<glyph unicode="?" horiz-adv-x="1069" d="M63 1036h175q0 115 76.5 184.5t211.5 69.5q139 0 208 -63.5t69 -173.5q0 -41 -10.5 -72t-31 -57.5t-48 -51t-64.5 -53.5q-47 -37 -91 -72.5t-76.5 -80.5t-52 -104.5t-19.5 -143.5v-56h168v56q0 55 12 94t34.5 69.5t54.5 57.5t73 55q37 27 76.5 59.5t72.5 75.5t53.5 99.5 t20.5 130.5q0 82 -30 154.5t-87 127t-141 85t-191 30.5q-109 0 -193.5 -33.5t-145 -91t-92.5 -134.5t-32 -161zM395 0h197v203h-197v-203z" />
<glyph unicode="@" horiz-adv-x="1548" d="M78 707q0 -162 54 -296.5t150.5 -231.5t229.5 -150.5t291 -53.5q207 0 373.5 87.5t265.5 242.5h-189q-80 -86 -197.5 -136t-252.5 -50q-129 0 -233.5 44t-180.5 121.5t-117 186.5t-41 236q0 119 44 228t121 193t182.5 133.5t226.5 49.5q125 0 220 -40t160.5 -106.5 t99.5 -154.5t34 -187q0 -80 -19.5 -143.5t-52.5 -109.5t-75 -70.5t-87 -24.5t-67 29t-6 88q0 4 12 42t32.5 102.5t41 132t40 128t29.5 90.5h-147l-25 -81q-23 51 -69.5 79.5t-110.5 28.5q-61 0 -123.5 -27.5t-118 -76.5t-98.5 -117t-67 -148q-27 -92 -19 -167.5t40 -130 t85 -84t117 -29.5q70 0 137.5 36t118.5 97q18 -57 67.5 -95t132.5 -38q66 0 134.5 32.5t124 95t91.5 153t36 202.5q0 141 -49.5 259t-137.5 202t-211 131t-270 47q-145 0 -277.5 -56.5t-231.5 -156.5t-158.5 -237.5t-59.5 -298.5zM551 707q12 51 39.5 98t62.5 84t75 58.5 t81 21.5q39 0 61.5 -20.5t32.5 -54.5t8 -75t-12 -82q-12 -47 -33.5 -93t-51.5 -82t-68.5 -58.5t-83.5 -22.5q-68 0 -102 59.5t-9 166.5z" />
<glyph unicode="A" horiz-adv-x="1284" d="M12 0h189l151 414h576l149 -414h195l-527 1421h-196zM412 575l231 633l227 -633h-458z" />
<glyph unicode="B" horiz-adv-x="1310" d="M166 0h616q102 0 184.5 31.5t139.5 88t88 132.5t31 164q0 111 -50.5 202t-166.5 132q92 47 135 127.5t43 160.5q0 86 -29 157t-81 121t-128 77.5t-170 27.5h-612v-1421zM340 168v491h444q119 0 193 -56t74 -189q0 -117 -73 -181.5t-187 -64.5h-451zM340 825v430h438 q106 0 170 -50t64 -165q0 -59 -20.5 -100t-53.5 -66.5t-74 -37t-80 -11.5h-444z" />
<glyph unicode="C" horiz-adv-x="1488" d="M82 717q0 -154 55.5 -289t150.5 -235.5t224 -159t274 -58.5q115 0 217.5 34t186.5 95.5t147.5 149.5t100.5 197h-183q-66 -141 -188.5 -224.5t-280.5 -83.5q-111 0 -207 45t-168.5 124t-114.5 183.5t-42 221.5t42 221t114.5 183t169 124t206.5 45q174 0 292 -86t177 -221 h183q-35 104 -95.5 191.5t-143.5 149.5t-187.5 97t-225.5 35q-145 0 -274 -58.5t-224 -158.5t-150.5 -234.5t-55.5 -287.5z" />
<glyph unicode="D" horiz-adv-x="1417" d="M166 0h526q147 0 266 49t204 141.5t130 224.5t45 298t-45 297t-130 222t-203.5 140t-266.5 49h-526v-1421zM340 168v1087h352q98 0 183.5 -29.5t147.5 -95t99 -169t37 -248.5q0 -143 -36 -247t-99 -169.5t-148 -97t-184 -31.5h-352z" />
<glyph unicode="E" horiz-adv-x="1269" d="M166 0h1016v168h-842v491h760v166h-760v430h842v166h-1016v-1421z" />
<glyph unicode="F" horiz-adv-x="1198" d="M166 0h174v664h713v161h-713v430h795v166h-969v-1421z" />
<glyph unicode="G" horiz-adv-x="1591" d="M82 717q0 -154 55.5 -289t151.5 -235.5t224 -159t275 -58.5q182 0 313.5 75t209.5 192v-242h168v774h-680v-168h510q-12 -90 -52 -173t-106 -147.5t-158 -103.5t-205 -39q-111 0 -208 45t-169.5 124t-114.5 183.5t-42 221.5t42 220t114.5 182t170 124t207.5 45 q158 0 280 -81t189 -224h185q-39 109 -103.5 197t-148.5 149.5t-186.5 94t-215.5 32.5q-147 0 -275 -58.5t-224 -158.5t-151.5 -234.5t-55.5 -287.5z" />
<glyph unicode="H" horiz-adv-x="1458" d="M166 0h174v662h778v-662h172v1421h-172v-592h-778v592h-174v-1421z" />
<glyph unicode="I" horiz-adv-x="522" d="M174 0h174v1421h-174v-1421z" />
<glyph unicode="J" horiz-adv-x="1114" d="M31 451q0 -100 35.5 -186.5t99 -151t150.5 -101.5t190 -37q113 0 202 37t149.5 104.5t92 160.5t31.5 204v940h-172v-940q0 -154 -75 -246t-228 -92q-72 0 -128 25t-95 66.5t-59.5 98t-20.5 118.5h-172z" />
<glyph unicode="K" horiz-adv-x="1329" d="M166 0h174v502l244 233l522 -735h217l-614 856l589 565h-243l-715 -694v694h-174v-1421z" />
<glyph unicode="L" horiz-adv-x="1122" d="M166 0h905v168h-731v1253h-174v-1421z" />
<glyph unicode="M" horiz-adv-x="1697" d="M166 0h174v1190l416 -1190h186l416 1190v-1190h174v1421h-264l-418 -1198l-418 1198h-266v-1421z" />
<glyph unicode="N" horiz-adv-x="1464" d="M166 0h174v1157l764 -1157h192v1421h-172v-1155l-764 1155h-194v-1421z" />
<glyph unicode="O" horiz-adv-x="1570" d="M82 717q0 -156 55.5 -291t150.5 -235.5t224 -158t274 -57.5t274.5 57.5t224.5 158t150.5 235.5t55.5 291q0 158 -54.5 293t-149.5 234t-224.5 155.5t-276.5 56.5q-145 0 -274 -57.5t-224 -157.5t-150.5 -234.5t-55.5 -289.5zM254 717q0 121 42 225.5t114.5 182t169 121.5 t206.5 44q113 0 210.5 -44t169 -120.5t112.5 -181t41 -227.5q0 -121 -42 -225.5t-114.5 -182.5t-169 -122t-207.5 -44t-207 44t-168.5 121t-114.5 182.5t-42 226.5z" />
<glyph unicode="P" horiz-adv-x="1273" d="M166 0h174v561h424q111 0 195.5 32t143 89t88.5 136t30 173t-30 173t-88.5 136.5t-143.5 89t-195 31.5h-598v-1421zM340 727v528h424q125 0 205 -62.5t80 -201.5t-80 -201.5t-205 -62.5h-424z" />
<glyph unicode="Q" horiz-adv-x="1572" d="M82 717q0 -156 55.5 -291t150.5 -235.5t224 -158t274 -57.5q106 0 202.5 31t178.5 86l88 -92h234l-193 203q92 100 143.5 232t51.5 282q0 158 -54.5 293t-149.5 234t-224 155.5t-277 56.5q-145 0 -274 -57.5t-224 -157.5t-150.5 -234.5t-55.5 -289.5zM254 717 q0 121 42 225.5t114.5 182t169 121.5t206.5 44q113 0 210.5 -44t169 -120.5t112.5 -181t41 -227.5q0 -115 -36.5 -213t-102.5 -176l-95 102h-233l199 -213q-121 -74 -265 -74q-111 0 -207 44t-168.5 121t-114.5 182.5t-42 226.5z" />
<glyph unicode="R" horiz-adv-x="1361" d="M166 0h174v561h465q123 0 178 -54t55 -159v-194q0 -49 7.5 -87t19.5 -67h176q-12 31 -21.5 81t-9.5 91v176q0 211 -149 299q92 53 143 141.5t51 202.5q0 94 -30.5 174t-90 136.5t-145.5 88t-194 31.5h-629v-1421zM340 729v526h455q131 0 207.5 -62.5t76.5 -201.5 q0 -123 -75.5 -192.5t-202.5 -69.5h-461z" />
<glyph unicode="S" horiz-adv-x="1224" d="M68 451q0 -106 38.5 -194.5t109.5 -151t171 -96.5t223 -34q119 0 218.5 28t170 82t109.5 134t39 184q0 102 -35 172t-100.5 118t-158.5 78t-210 52q-109 20 -178.5 43t-109.5 50.5t-54 62.5t-14 82q0 100 77.5 164.5t243.5 64.5q160 0 243 -75.5t83 -200.5h176 q0 102 -35 184t-100.5 139.5t-158.5 88t-210 30.5q-113 0 -205 -28.5t-156.5 -81t-99 -126t-34.5 -165.5t32.5 -158t96 -112t155.5 -76.5t211 -51.5q117 -20 189.5 -45.5t111.5 -56.5t52.5 -68.5t13.5 -83.5q0 -121 -89 -191.5t-274 -70.5q-162 0 -262 83t-100 227h-180z " />
<glyph unicode="T" horiz-adv-x="1136" d="M35 1255h446v-1255h174v1255h447v166h-1067v-166z" />
<glyph unicode="U" horiz-adv-x="1372" d="M141 510q0 -119 39 -217t110.5 -169t172 -110t223.5 -39q121 0 221.5 39t172 110t111.5 169t40 217v911h-174v-911q0 -80 -24.5 -146.5t-72 -115.5t-116 -77t-158.5 -28t-158.5 28t-117 77t-73 115.5t-24.5 146.5v911h-172v-911z" />
<glyph unicode="V" horiz-adv-x="1249" d="M8 1421l524 -1421h187l522 1421h-186l-430 -1206l-428 1206h-189z" />
<glyph unicode="W" horiz-adv-x="1839" d="M16 1421l404 -1421h184l316 1143l313 -1143h184l404 1421h-185l-311 -1140l-315 1140h-183l-315 -1140l-311 1140h-185z" />
<glyph unicode="X" horiz-adv-x="1193" d="M12 0h209l377 575l375 -575h209l-482 723l463 698h-207l-358 -551l-360 551h-207l463 -698z" />
<glyph unicode="Y" horiz-adv-x="1177" d="M8 1421l494 -807v-614h174v614l493 807h-198l-381 -647l-381 647h-201z" />
<glyph unicode="Z" horiz-adv-x="1191" d="M55 0h1082v168h-861l857 1094v159h-1051v-166h836l-863 -1099v-156z" />
<glyph unicode="[" horiz-adv-x="634" d="M158 -174h434v149h-260v1481h260v152h-434v-1782z" />
<glyph unicode="\" horiz-adv-x="561" d="M-35 1524l432 -1524h172l-430 1524h-174z" />
<glyph unicode="]" horiz-adv-x="634" d="M43 -25v-149h434v1782h-434v-152h260v-1481h-260z" />
<glyph unicode="^" horiz-adv-x="1050" d="M68 528h186l272 699l271 -699h186l-365 893h-184z" />
<glyph unicode="_" horiz-adv-x="1804" d="M0 -141v-168h1804v168h-1804z" />
<glyph unicode="`" horiz-adv-x="854" d="M207 1505l252 -270h135l-178 270h-209z" />
<glyph unicode="a" horiz-adv-x="1161" d="M74 301q0 -86 33.5 -147.5t90 -101.5t131 -58.5t156.5 -18.5q123 0 214.5 38t148.5 108q2 -37 9 -67.5t17 -53.5h173q-12 31 -21.5 81t-9.5 91v582q0 147 -106.5 237t-319.5 90q-205 0 -326 -94t-131 -254h180q6 57 35 94t68 57.5t85 29t87 8.5q135 0 196.5 -42 t61.5 -106q0 -31 -17.5 -55.5t-57.5 -43t-105.5 -29.5t-161.5 -15q-205 -10 -317.5 -88t-112.5 -242zM246 301q0 33 11 63.5t43 55t86 41t140 22.5q94 6 180.5 21.5t139.5 62.5v-161q-2 -72 -32 -123.5t-79 -83t-112.5 -47t-130.5 -15.5q-51 0 -95.5 9.5t-78 30t-53 51 t-19.5 73.5z" />
<glyph unicode="b" horiz-adv-x="1282" d="M150 0h167v170q55 -82 151.5 -139.5t213.5 -57.5q113 0 210 43t166.5 119t109.5 176t40 215t-40 216.5t-109.5 176t-166.5 118.5t-210 44q-115 0 -208 -54t-150 -132v629h-174v-1524zM324 524q0 82 28.5 154t77.5 126t113.5 85t138.5 31t138.5 -31t111.5 -85t74.5 -126 t27.5 -154q0 -80 -27.5 -151.5t-74.5 -124.5t-111.5 -84t-138.5 -31t-138.5 31t-113.5 84t-77.5 124.5t-28.5 151.5z" />
<glyph unicode="c" horiz-adv-x="1150" d="M72 526q0 -115 42 -215t113.5 -175t168 -118t204.5 -43q178 0 308.5 96.5t183.5 256.5h-187q-43 -86 -121.5 -139.5t-183.5 -53.5q-74 0 -138.5 31t-112.5 84t-75.5 123.5t-27.5 152.5t27.5 154t75.5 125t112.5 85t138.5 32q104 0 182 -53.5t123 -139.5h187 q-27 80 -74 144.5t-110.5 110.5t-141.5 71.5t-166 25.5q-109 0 -205 -44t-167.5 -118.5t-113.5 -176t-42 -216.5z" />
<glyph unicode="d" horiz-adv-x="1282" d="M72 526q0 -115 40 -215t110.5 -176t166.5 -119t211 -43q117 0 213 57.5t152 139.5v-170h168v1524h-175v-629q-57 78 -150 132t-208 54t-211 -44t-166.5 -118.5t-110.5 -176t-40 -216.5zM246 524q0 82 27.5 154t74.5 126t112.5 85t139.5 31t138.5 -31t113.5 -85t77.5 -126 t28.5 -154q0 -80 -28.5 -151.5t-77.5 -124.5t-113.5 -84t-138.5 -31t-139.5 31t-112.5 84t-74.5 124.5t-27.5 151.5z" />
<glyph unicode="e" horiz-adv-x="1198" d="M72 526q0 -117 42 -217t114.5 -174t171 -117t212.5 -43q184 0 313.5 91.5t184.5 261.5h-184q-43 -92 -122 -143.5t-192 -51.5q-66 0 -127 23.5t-111 68.5t-84 109.5t-42 146.5h887q0 141 -44 252t-119 188.5t-171 118.5t-199 41q-111 0 -207 -44t-167.5 -118.5 t-113.5 -176t-42 -216.5zM258 637q16 68 52 121t82 90t100.5 56.5t109.5 19.5q57 0 111.5 -20.5t99.5 -58.5t79 -91.5t50 -116.5h-684z" />
<glyph unicode="f" horiz-adv-x="626" d="M39 885h143v-885h172v885h240v166h-240v41q0 53 12.5 116.5t53.5 100.5q52 48 149 48q14 0 29 -1v157q-31 3 -60 3q-143 0 -235 -82q-121 -109 -121 -342v-41h-143v-166z" />
<glyph unicode="g" horiz-adv-x="1265" d="M72 526q0 -115 40 -215t110.5 -176t166.5 -119t211 -43t208 54.5t150 132.5v-111q0 -72 -19 -143.5t-63.5 -128t-115 -92t-170.5 -35.5q-29 0 -72 6t-89 24.5t-87 54.5t-68 95h-182q41 -162 175 -255t323 -93q121 0 221 41t172 115.5t111 179t39 231.5v1006h-168v-168 q-55 80 -151.5 137t-213.5 57q-115 0 -211 -44t-166.5 -118.5t-110.5 -176t-40 -216.5zM246 524q0 82 27.5 154t74.5 126t112.5 85t139.5 31t138.5 -31t113.5 -85t77.5 -126t28.5 -154q0 -80 -28.5 -151.5t-77.5 -124.5t-113.5 -84t-138.5 -31t-139.5 31t-112.5 84 t-74.5 124.5t-27.5 151.5z" />
<glyph unicode="h" d="M150 0h174v645q0 59 20.5 109.5t57 87.5t88 58.5t110.5 21.5q129 0 193.5 -79t64.5 -202v-641h172v635q0 98 -26.5 180t-79 141.5t-128 92t-171.5 32.5q-94 0 -171 -35.5t-130 -97.5v576h-174v-1524z" />
<glyph unicode="i" horiz-adv-x="477" d="M152 0h174v1055h-174v-1055zM152 1214h174v207h-174v-207z" />
<glyph unicode="j" horiz-adv-x="454" d="M0 -293v-170q19 -1 36 -1q63 0 110 16q61 22 100 66t57.5 104.5t18.5 132.5v1200h-172v-1198q0 -84 -37 -121q-35 -30 -93 -30q-9 0 -20 1zM150 1214h172v207h-172v-207z" />
<glyph unicode="k" horiz-adv-x="1116" d="M150 0h174v340l202 197l361 -537h211l-445 659l408 396h-256l-481 -473v942h-174v-1524z" />
<glyph unicode="l" horiz-adv-x="481" d="M154 0h174v1524h-174v-1524z" />
<glyph unicode="m" horiz-adv-x="1787" d="M150 0h174v645q0 59 18 109.5t52 87.5t80 58.5t99 21.5q117 0 177.5 -71t60.5 -194v-657h172v645q0 59 18.5 109.5t51 87.5t79 58.5t99.5 21.5q123 0 181 -71t58 -194v-657h175v653q0 199 -103.5 313.5t-288.5 114.5q-115 0 -197.5 -49t-131.5 -131q-49 86 -131 133 t-195 47q-88 0 -159.5 -37.5t-121.5 -103.5v115h-167v-1055z" />
<glyph unicode="n" d="M150 0h174v645q0 59 20.5 109.5t57 87.5t88 58.5t110.5 21.5q127 0 192.5 -79t65.5 -202v-641h172v635q0 98 -26.5 180t-79 141.5t-128 92t-171.5 32.5t-175 -37.5t-133 -103.5v115h-167v-1055z" />
<glyph unicode="o" horiz-adv-x="1206" d="M72 524q0 -115 41 -214t112.5 -174t167.5 -118t209 -43t210 43t168 118t112 174.5t41 213.5q0 115 -41 216.5t-112 177t-168 119.5t-210 44t-209 -44t-167.5 -119.5t-112.5 -177t-41 -216.5zM248 524q0 82 27.5 155t75.5 126t112.5 85t138.5 32t138.5 -32t113.5 -85 t76.5 -126t27.5 -155q0 -80 -27.5 -151.5t-76.5 -123.5t-113.5 -83t-138.5 -31t-138.5 31t-112.5 83t-75.5 123.5t-27.5 151.5z" />
<glyph unicode="p" horiz-adv-x="1282" d="M150 -469h174v629q57 -78 150 -131.5t208 -53.5q113 0 210 43t166.5 119t109.5 177t40 216q0 113 -40 213.5t-109.5 176t-166.5 118.5t-210 43q-117 0 -213 -57t-152 -137v168h-167v-1524zM324 530q0 80 28.5 152t77.5 125t113.5 84t138.5 31t138.5 -31t111.5 -84 t74.5 -125t27.5 -152q0 -82 -27.5 -153.5t-74.5 -125.5t-111.5 -85t-138.5 -31t-138.5 31t-113.5 85t-77.5 126t-28.5 153z" />
<glyph unicode="q" horiz-adv-x="1282" d="M72 530q0 -115 40 -216t110.5 -177t166.5 -119t211 -43t208 53.5t150 131.5v-629h175v1524h-168v-168q-55 80 -151.5 137t-213.5 57q-115 0 -211 -43t-166.5 -118.5t-110.5 -176t-40 -213.5zM246 530q0 80 27.5 152t74.5 125t112.5 84t139.5 31t138.5 -31t113.5 -84 t77.5 -125t28.5 -152q0 -82 -28.5 -153.5t-77.5 -125.5t-113.5 -85t-138.5 -31t-139.5 31t-112.5 85t-74.5 126t-27.5 153z" />
<glyph unicode="r" horiz-adv-x="706" d="M150 0h174v610q0 80 27.5 137.5t73.5 94.5q45 37 107 53q49 13 103 13q13 0 27 -1v172q-22 3 -46 3t-48 -3q-48 -6 -94 -23.5t-86 -47t-71 -72.5v119h-167v-1055z" />
<glyph unicode="s" horiz-adv-x="1030" d="M63 334q10 -84 49.5 -150.5t100.5 -113.5t143 -72t179 -25q94 0 173.5 25t137 69t89.5 107t32 143q0 90 -34 146.5t-92.5 90.5t-135 52.5t-164.5 32.5q-78 12 -129.5 24.5t-82 28t-43 34.5t-12.5 48q0 61 68 104.5t172 43.5q98 0 167 -42t87 -128h176q-16 156 -131 242.5 t-299 86.5q-106 0 -184 -27.5t-129 -72.5t-76 -100.5t-25 -112.5q0 -74 29 -125t82 -85t129 -53.5t172 -33.5q96 -12 153.5 -29.5t87 -38t38 -45t8.5 -51.5q0 -70 -71 -121t-193 -51q-115 0 -197 53.5t-98 145.5h-177z" />
<glyph unicode="t" horiz-adv-x="641" d="M35 889h143v-504q0 -100 31 -177t85 -127q54 -51 131 -71q52 -14 110 -13q29 0 59 3v160q-15 -1 -30 -1q-33 0 -63 6q-44 9 -78 34.5t-53.5 70.5t-19.5 115v504h240v166h-240v225h-172v-225h-143v-166z" />
<glyph unicode="u" d="M145 420q0 -98 27 -179t79 -140.5t128 -92.5t172 -33q98 0 176 37t131 103v-115h168v1055h-174v-647q0 -59 -21.5 -109.5t-58.5 -87.5t-87 -57.5t-107 -20.5q-127 0 -194 76t-67 203v643h-172v-635z" />
<glyph unicode="v" horiz-adv-x="993" d="M20 1055l383 -1055h187l383 1055h-185l-290 -840l-293 840h-185z" />
<glyph unicode="w" horiz-adv-x="1476" d="M16 1055l316 -1055h180l225 807l226 -807h182l315 1055h-182l-223 -793l-226 793h-180l-225 -793l-225 793h-183z" />
<glyph unicode="x" horiz-adv-x="991" d="M12 0h213l271 412l270 -412h213l-379 545l354 510h-213l-245 -377l-246 377h-213l352 -510z" />
<glyph unicode="y" horiz-adv-x="1024" d="M20 1055l404 -1049l-55 -147q-16 -47 -37 -78t-48.5 -49.5t-65.5 -25.5q-24 -4 -54 -4q-16 0 -35 1v-160q33 -3 63 -3q116 0 190 48q93 62 148 209l474 1258h-187l-301 -840l-307 840h-189z" />
<glyph unicode="z" horiz-adv-x="962" d="M55 0h852v168h-618l600 729v158h-817v-166h590l-607 -744v-145z" />
<glyph unicode="{" horiz-adv-x="630" d="M59 639q35 0 67 -7t56.5 -26.5t39 -53.5t14.5 -85v-338q0 -90 25.5 -149.5t68.5 -94.5t102.5 -48t126.5 -7v145q-86 -4 -122 36t-36 118v332q0 104 -35.5 163.5t-107.5 86.5q72 29 107.5 88t35.5 162v337q0 76 36 117t122 37v145q-68 6 -127 -7t-102 -48t-68.5 -95.5 t-25.5 -148.5v-344q0 -53 -14.5 -85.5t-39 -52t-56.5 -27t-67 -7.5v-143z" />
<glyph unicode="|" horiz-adv-x="454" d="M141 0h172v1524h-172v-1524z" />
<glyph unicode="}" horiz-adv-x="630" d="M72 -25v-145q68 -6 127 7t102 48t68.5 94.5t25.5 149.5v338q0 51 14.5 85t39 53.5t56.5 26.5t66 7v143q-35 0 -66.5 7.5t-56 27t-39 52t-14.5 85.5v344q0 88 -25.5 148.5t-68.5 95.5t-102 48t-127 7v-145q86 4 121.5 -37t35.5 -117v-337q0 -102 36 -162t108 -88 q-72 -27 -108 -86.5t-36 -163.5v-332q0 -78 -35.5 -118t-121.5 -36z" />
<glyph unicode="~" horiz-adv-x="776" d="M47 1204h98q4 37 27 62.5t59 25.5q31 0 65 -12t69.5 -26.5t74.5 -27t80 -12.5q51 0 89 18.5t63.5 48.5t39 69t17.5 80h-98q-4 -37 -26.5 -64t-59.5 -27q-31 0 -63.5 12.5t-67.5 28t-75 27.5t-83 12q-49 0 -87 -18.5t-63.5 -48t-40 -68.5t-18.5 -80z" />
<glyph unicode="&#xa1;" horiz-adv-x="555" d="M180 1219h195v202h-195v-202zM190 0h175v1059h-175v-1059z" />
<glyph unicode="&#xa2;" horiz-adv-x="1120" d="M63 539q0 -160 80 -288t209 -194l-86 -282h123l72 239q29 -6 58.5 -10t62.5 -4q174 0 300 94t179 250h-187q-43 -86 -119.5 -132t-172.5 -46q-18 0 -37 2t-35 6l215 709q96 -47 147 -146h189q-39 109 -111.5 188t-175.5 119l76 248h-123l-65 -217q-41 6 -80 6 q-106 0 -200.5 -43t-165.5 -116.5t-112 -172t-41 -210.5zM238 539q0 78 26.5 146.5t73.5 119.5t109.5 80.5t134.5 29.5q8 0 15 -1t15 -1l-211 -692q-74 49 -118.5 132t-44.5 186z" />
<glyph unicode="&#xa3;" horiz-adv-x="1126" d="M63 612h228q14 -29 22.5 -59.5t8.5 -65.5q0 -123 -53.5 -211t-149.5 -145l96 -145q61 43 114.5 64.5t100.5 24.5t90 -8.5t88 -31.5q51 -25 109.5 -42.5t120 -18.5t125 18.5t124.5 68.5l-96 144q-68 -53 -138.5 -55.5t-174.5 40.5q-80 35 -162 38t-168 -44 q74 66 103.5 146t29.5 155q0 35 -5 67t-13 60h278v117h-327q-41 74 -79 140.5t-38 150.5q0 113 79 180.5t214 67.5q147 0 223 -75t76 -204h172q0 98 -34 179t-96.5 139.5t-149.5 91.5t-191 33q-106 0 -193.5 -31t-149 -86t-95 -131t-33.5 -164q0 -98 31.5 -165t68.5 -126 h-156v-117z" />
<glyph unicode="&#xa4;" horiz-adv-x="1409" d="M72 438h151q31 -96 89.5 -178t136 -141.5t171 -93t197.5 -33.5q172 0 310.5 88t218.5 233h-201q-61 -72 -145.5 -114.5t-182.5 -42.5q-135 0 -244.5 78.5t-164.5 203.5h604l57 117h-696q-8 41 -8 94v27q0 14 2 29h774l57 116h-805q25 70 66 128.5t96 101.5t121.5 67.5 t140.5 24.5q133 0 246 -65.5t176 -170.5l80 164q-92 111 -223 173.5t-279 62.5q-109 0 -206 -37t-177 -101.5t-138 -153.5t-85 -194h-139v-116h121q-2 -14 -3 -29v-27q0 -49 7 -94h-125v-117z" />
<glyph unicode="&#xa5;" horiz-adv-x="1234" d="M35 1421l272 -469h-217v-116h285l131 -226h-385v-116h409v-494h175v494h407v116h-383l131 226h285v116h-217l272 469h-201l-383 -673l-380 673h-201z" />
<glyph unicode="&#xa7;" horiz-adv-x="1095" d="M86 776q0 -94 39 -152.5t98.5 -95t132 -55t138.5 -33.5q82 -16 131 -33.5t76.5 -37t37 -40t9.5 -44.5q0 -70 -55.5 -108t-147.5 -38t-151.5 45t-59.5 133h-170q0 -78 27.5 -140t79 -107t121 -70t153.5 -25t153.5 21.5t118.5 61.5t77 97.5t28 129.5q0 84 -35 139 q55 37 90 96.5t35 136.5q0 80 -27 134.5t-78 93.5t-126.5 64.5t-174.5 43.5q-80 14 -131 30.5t-78.5 34t-38 39t-10.5 50.5q0 76 60.5 110.5t144.5 34.5q104 0 157.5 -48t53.5 -132h170q0 82 -28.5 146.5t-80 108.5t-121 66.5t-151.5 22.5q-84 0 -153.5 -22.5t-120 -63.5 t-78 -97t-27.5 -126q0 -80 39 -137q-59 -41 -93 -100.5t-34 -133.5zM260 778q0 86 78 123q47 -27 106.5 -43t124.5 -29q86 -16 138.5 -32.5t82 -37t39 -46t9.5 -56.5q0 -43 -21.5 -76t-58.5 -49q-45 20 -100.5 36t-120.5 30q-86 16 -140.5 33.5t-85 39t-41 47t-10.5 60.5z " />
<glyph unicode="&#xa8;" horiz-adv-x="854" d="M170 1245h166v185h-166v-185zM518 1245h166v185h-166v-185z" />
<glyph unicode="&#xa9;" horiz-adv-x="1638" d="M78 717q0 -154 58.5 -289t158.5 -235.5t235.5 -159t288.5 -58.5q154 0 289 58.5t235.5 159t159 235.5t58.5 289t-58.5 288t-159 234t-235.5 158.5t-289 58.5t-289 -58.5t-235 -158.5t-158.5 -234.5t-58.5 -287.5zM225 717q0 125 47 234.5t127 191.5t188.5 129t231.5 47 t231.5 -47t188.5 -129t127 -191.5t47 -234.5t-47 -235.5t-127 -192.5t-188.5 -129t-231.5 -47t-231.5 47t-188.5 129t-127 192.5t-47 235.5zM397 717q0 -92 34 -172t91.5 -140.5t134 -95.5t162.5 -35q70 0 133.5 22.5t115.5 62.5t91.5 96.5t59.5 122.5h-158 q-35 -72 -98.5 -115t-143.5 -43q-57 0 -106 23.5t-86 63.5t-57.5 94t-20.5 116q0 61 20.5 114.5t57.5 93.5t86 63.5t106 23.5q82 0 145.5 -42t96.5 -114h160q-20 66 -58.5 121t-90.5 95t-116.5 62.5t-136.5 22.5q-86 0 -162.5 -35t-134 -95t-91.5 -140t-34 -170z" />
<glyph unicode="&#xaa;" horiz-adv-x="776" d="M61 969q0 -51 21.5 -90t56.5 -66t81 -40t93 -13q76 0 128.5 20.5t84.5 55.5q4 -16 8.5 -31t8.5 -27h131q-8 16 -14.5 48t-6.5 55v364q0 92 -64.5 150.5t-205.5 58.5q-49 0 -97 -12t-87 -37t-67 -63.5t-38 -92.5h139q16 41 56.5 61.5t93.5 20.5q78 0 107.5 -21.5 t29.5 -49.5q0 -31 -40 -48.5t-132 -23.5q-66 -6 -113 -17.5t-81 -33.5q-92 -57 -93 -168zM199 969q0 16 6 32.5t23.5 29.5t48 23.5t82 14.5t94.5 15.5t69 29.5v-82q0 -43 -18.5 -71.5t-47 -46t-63.5 -23.5t-67 -6q-49 0 -88 18.5t-39 65.5z" />
<glyph unicode="&#xab;" horiz-adv-x="866" d="M47 545l324 -279v180l-205 168l205 164v183l-324 -279v-137zM481 545l324 -279v180l-205 168l205 164v183l-324 -279v-137z" />
<glyph unicode="&#xac;" horiz-adv-x="409" d="M102 571h205v213h-205v-213z" />
<glyph unicode="&#xad;" horiz-adv-x="735" d="M90 481h555v168h-555v-168z" />
<glyph unicode="&#xae;" horiz-adv-x="1638" d="M78 717q0 -154 58.5 -289t158.5 -235.5t235.5 -159t288.5 -58.5q154 0 289 58.5t235.5 159t159 235.5t58.5 289t-58.5 288t-159 234t-235.5 158.5t-289 58.5t-289 -58.5t-235 -158.5t-158.5 -234.5t-58.5 -287.5zM225 717q0 125 47 234.5t127 191.5t188.5 129t231.5 47 t231.5 -47t188.5 -129t127 -191.5t47 -234.5t-47 -235.5t-127 -192.5t-188.5 -129t-231.5 -47t-231.5 47t-188.5 129t-127 192.5t-47 235.5zM518 328h154v282h198l148 -284h176l-174 303q78 29 124 94t46 154q0 123 -76 194.5t-205 71.5h-391v-815zM672 752v249h239 q59 0 93 -27.5t34 -96.5q0 -70 -40 -97.5t-87 -27.5h-239z" />
<glyph unicode="&#xaf;" horiz-adv-x="800" d="M86 1266h629v123h-629v-123z" />
<glyph unicode="&#xb0;" horiz-adv-x="774" d="M72 1108q0 -66 24.5 -123t67.5 -100t100.5 -67.5t122.5 -24.5q63 0 120.5 24.5t100.5 67.5t68.5 100t25.5 123q0 63 -25.5 120.5t-68.5 100.5t-100.5 67.5t-120.5 24.5q-66 0 -123 -24.5t-100 -67.5t-67.5 -100.5t-24.5 -120.5zM188 1108q0 84 57.5 142.5t141.5 58.5 t141.5 -58.5t57.5 -142.5q0 -86 -57.5 -143.5t-141.5 -57.5t-141.5 57.5t-57.5 143.5z" />
<glyph unicode="&#xb1;" horiz-adv-x="1636" d="M39 885h143v-885h172v885h383v-885h172v885h240v166h-240v41q0 53 12.5 116.5t53.5 100.5q59 55 178 47v157q-184 20 -295 -79q-121 -109 -121 -342v-41h-383v41q0 53 12.5 116.5t53.5 100.5q59 55 178 47v157q-184 20 -295 -79q-121 -109 -121 -342v-41h-143v-166z M1311 0h172v1524h-172v-1524z" />
<glyph unicode="&#xb2;" horiz-adv-x="770" d="M51 528h606v129h-460q12 61 63 105.5t137 91.5q61 33 112.5 64.5t88.5 68.5t57.5 84t20.5 111q0 47 -17.5 95t-54.5 86t-93 61.5t-132 23.5q-74 0 -131.5 -25.5t-97 -68.5t-61 -100.5t-21.5 -123.5h135q0 78 44 134.5t136 56.5q88 0 124 -44t36 -95q0 -29 -7.5 -52.5 t-30 -48t-63.5 -51t-108 -63.5q-55 -31 -106.5 -64t-90.5 -76t-62.5 -99t-23.5 -132v-68z" />
<glyph unicode="&#xb3;" horiz-adv-x="804" d="M72 795q4 -72 31.5 -125.5t70.5 -88t99.5 -52t121.5 -17.5q70 0 129.5 20.5t103.5 58.5t68.5 90.5t24.5 115.5q0 82 -35 136t-96 85q51 29 74.5 73t23.5 103q0 49 -18.5 95t-54 82t-89 56.5t-125.5 20.5t-128 -22.5t-95 -62.5t-59.5 -92t-20.5 -110h135q0 70 46.5 116 t123.5 46q78 0 114 -41t36 -96q0 -47 -34 -83t-122 -36h-55v-127h74q49 0 81.5 -13.5t52 -35t27 -48t7.5 -50.5q0 -27 -10.5 -54.5t-33 -50t-59.5 -37t-88 -14.5q-49 0 -84 13.5t-56.5 36t-32.5 51t-11 57.5h-137z" />
<glyph unicode="&#xb4;" horiz-adv-x="854" d="M328 1235h143l244 270h-209z" />
<glyph unicode="&#xb5;" horiz-adv-x="409" d="M102 571h205v213h-205v-213z" />
<glyph unicode="&#xb6;" horiz-adv-x="1126" d="M53 991q0 -90 28 -165.5t82 -132t132 -90.5t178 -40v-563h172v1255h180v-1255h174v1421h-489q-111 0 -196 -31.5t-143 -89t-88 -136.5t-30 -173z" />
<glyph unicode="&#xb7;" horiz-adv-x="409" d="M102 571h205v213h-205v-213z" />
<glyph unicode="&#xb8;" horiz-adv-x="516" d="M86 -299q33 -41 83 -63.5t97 -22.5q74 0 119 37t45 106q0 47 -23.5 79t-58.5 45.5t-75 11t-72 -22.5l2 -14l90 143h-92l-78 -160l65 -43q16 16 36 21.5t38 5.5q39 0 60.5 -20.5t21.5 -49.5q0 -31 -25.5 -47t-60.5 -16q-39 0 -79 13t-68 42z" />
<glyph unicode="&#xb9;" horiz-adv-x="471" d="M39 1245h131v-717h135v893h-127q-4 -49 -43 -69.5t-96 -22.5v-84z" />
<glyph unicode="&#xba;" horiz-adv-x="788" d="M61 1106q0 -72 27 -134.5t72 -109.5t105.5 -74.5t129.5 -27.5q70 0 130.5 27.5t105.5 74.5t70.5 109.5t25.5 134.5t-25.5 135.5t-70.5 110.5t-105.5 74.5t-130.5 27.5t-130 -27.5t-105 -74.5t-72 -110.5t-27 -135.5zM197 1106q0 45 15 85t43 70.5t63.5 48t76.5 17.5 t77 -17.5t62.5 -48t42 -70.5t15.5 -85t-15.5 -85t-42 -69.5t-62.5 -47t-77 -17.5t-76.5 17.5t-63.5 47t-43 69.5t-15 85z" />
<glyph unicode="&#xbb;" horiz-adv-x="866" d="M59 266l326 279v137l-326 279v-183l205 -164l-205 -168v-180zM494 266l325 279v137l-325 279v-183l204 -164l-204 -168v-180z" />
<glyph unicode="&#xbc;" horiz-adv-x="1388" d="M39 1245h129v-717h135v893h-127q-4 -49 -42 -69.5t-95 -22.5v-84zM117 -25h127l835 1446h-127zM674 195h411v-195h136v195h73v129h-73v569h-138l-409 -565v-133zM823 324l262 362v-362h-262z" />
<glyph unicode="&#xbd;" horiz-adv-x="1542" d="M39 1245h131v-717h135v893h-127q-4 -49 -42 -69.5t-97 -22.5v-84zM119 -25h127l835 1446h-129zM821 0h609v131h-463q12 61 63 104.5t137 90.5q61 33 112.5 64.5t89.5 68.5t58.5 84t20.5 110q0 49 -18.5 96.5t-55.5 85t-93 61.5t-132 24q-74 0 -131 -26t-97 -69 t-61.5 -100t-21.5 -123h135q0 78 45 135.5t135 57.5q43 0 73.5 -12.5t49 -33t27 -46t8.5 -50.5q0 -29 -7.5 -52t-30 -48t-63.5 -51.5t-108 -63.5q-55 -31 -106.5 -63.5t-89.5 -75.5t-61.5 -99.5t-23.5 -131.5v-68z" />
<glyph unicode="&#xbe;" horiz-adv-x="1705" d="M72 795q4 -72 30.5 -125.5t70.5 -88t100.5 -52t121.5 -17.5q70 0 129.5 20.5t102.5 58.5t67.5 90.5t24.5 115.5q0 82 -34 136t-95 85q51 29 74.5 73t23.5 103q0 49 -18.5 95t-54 82t-89 56.5t-125.5 20.5t-128 -22.5t-95 -62.5t-59.5 -92t-20.5 -110h135q0 70 46.5 116 t121.5 46q78 0 115 -41t37 -96q0 -47 -34 -83t-122 -36h-57v-127h76q49 0 81.5 -13.5t51 -35t27 -48t8.5 -50.5q0 -27 -10.5 -54.5t-33 -50t-59.5 -37t-88 -14.5q-49 0 -84 13.5t-56.5 36t-32.5 51t-11 57.5h-137zM467 -25h127l833 1446h-127zM1024 195h410v-195h135v195h73 v129h-73v569h-135l-410 -565v-133zM1171 324l263 362v-362h-263z" />
<glyph unicode="&#xbf;" horiz-adv-x="1069" d="M94 362q0 -84 30 -155.5t87 -125.5t141 -85t191 -31q106 0 192 34t146.5 91t92.5 134t32 161h-175q0 -113 -76.5 -183.5t-211.5 -70.5q-139 0 -208 63.5t-69 174.5q0 41 10.5 71.5t31 57t48 51t64.5 53.5q47 37 91 73t78 81t53.5 104.5t19.5 143.5v55h-170v-55 q0 -55 -12.5 -94.5t-35 -70t-55.5 -57t-72 -55.5q-37 -27 -76.5 -58.5t-72.5 -74.5t-53.5 -99.5t-20.5 -132.5zM477 1219h197v202h-197v-202z" />
<glyph unicode="&#xc0;" horiz-adv-x="1284" d="M12 0h189l151 414h576l149 -414h195l-527 1421h-196zM311 1847l254 -280h137l-180 280h-211zM412 575l231 633l227 -633h-458z" />
<glyph unicode="&#xc1;" horiz-adv-x="1284" d="M12 0h189l151 414h576l149 -414h195l-527 1421h-196zM412 575l231 633l227 -633h-458zM590 1567h137l256 280h-215z" />
<glyph unicode="&#xc2;" horiz-adv-x="1284" d="M12 0h189l151 414h576l149 -414h195l-527 1421h-196zM344 1565h158l131 186l131 -186h158l-215 290h-150zM412 575l231 633l227 -633h-458z" />
<glyph unicode="&#xc3;" horiz-adv-x="1284" d="M12 0h189l151 414h576l149 -414h195l-527 1421h-196zM287 1583h98q4 37 25.5 62.5t60.5 25.5q31 0 64.5 -12t69.5 -26.5t75 -27t80 -12.5q49 0 87 18.5t63.5 48.5t40 68.5t18.5 79.5h-99q-4 -37 -26.5 -63.5t-59.5 -26.5q-31 0 -63.5 12.5t-67.5 28t-74.5 27.5t-82.5 12 q-51 0 -89 -18.5t-64 -48t-40 -68.5t-16 -80zM412 575l231 633l227 -633h-458z" />
<glyph unicode="&#xc4;" horiz-adv-x="1284" d="M12 0h189l151 414h576l149 -414h195l-527 1421h-196zM375 1585h188v205h-188v-205zM412 575l231 633l227 -633h-458zM721 1585h186v205h-186v-205z" />
<glyph unicode="&#xc5;" horiz-adv-x="1284" d="M12 0h189l151 414h576l149 -414h195l-527 1421h-196zM412 575l231 633l227 -633h-458zM446 1767q0 -41 15.5 -75.5t41 -61t61.5 -42t77 -15.5q39 0 75 15.5t62.5 42t42 61t15.5 75.5t-15.5 77t-42 62.5t-62.5 42t-75 15.5q-82 0 -138.5 -57.5t-56.5 -139.5zM537 1767 q0 45 30.5 76t73.5 31t73.5 -31t30.5 -76q0 -43 -30.5 -73.5t-73.5 -30.5t-73.5 30.5t-30.5 73.5z" />
<glyph unicode="&#xc6;" horiz-adv-x="1978" d="M12 0h189l178 414h569v-414h942v168h-768v491h686v166h-686v430h768v166h-1259zM451 582l288 673h209v-673h-497z" />
<glyph unicode="&#xc7;" horiz-adv-x="1488" d="M82 717q0 -141 48 -268t131 -225.5t196.5 -163t244.5 -80.5l-69 -140l65 -43q16 16 36 21.5t38 5.5q39 0 60.5 -20.5t21.5 -49.5q0 -31 -25.5 -47t-60.5 -16q-39 0 -78 13t-69 42l-25 -45q35 -41 84 -63.5t96 -22.5q74 0 120 37t46 106q0 45 -21.5 76t-53 46.5 t-69.5 14.5t-71 -16l59 96q115 0 217.5 34t186.5 95.5t147.5 149.5t100.5 197h-183q-66 -141 -188.5 -224.5t-280.5 -83.5q-111 0 -207 45t-168.5 124t-114.5 183.5t-42 221.5t42 221t114.5 183t169 124t206.5 45q174 0 292 -86t177 -221h183q-35 104 -95.5 191.5 t-143.5 149.5t-187.5 97t-225.5 35q-145 0 -274 -58.5t-224 -158.5t-150.5 -234.5t-55.5 -287.5z" />
<glyph unicode="&#xc8;" horiz-adv-x="1269" d="M166 0h1016v168h-842v491h760v166h-760v430h842v166h-1016v-1421zM377 1847l256 -280h135l-178 280h-213z" />
<glyph unicode="&#xc9;" horiz-adv-x="1269" d="M166 0h1016v168h-842v491h760v166h-760v430h842v166h-1016v-1421zM604 1567h135l256 280h-213z" />
<glyph unicode="&#xca;" horiz-adv-x="1269" d="M166 0h1016v168h-842v491h760v166h-760v430h842v166h-1016v-1421zM387 1565h158l131 186l133 -186h158l-215 290h-152z" />
<glyph unicode="&#xcb;" horiz-adv-x="1269" d="M166 0h1016v168h-842v491h760v166h-760v430h842v166h-1016v-1421zM408 1585h188v205h-188v-205zM754 1585h188v205h-188v-205z" />
<glyph unicode="&#xcc;" horiz-adv-x="522" d="M-74 1847l254 -280h137l-178 280h-213zM174 0h174v1421h-174v-1421z" />
<glyph unicode="&#xcd;" horiz-adv-x="522" d="M174 0h174v1421h-174v-1421zM190 1567h138l256 280h-215z" />
<glyph unicode="&#xce;" horiz-adv-x="522" d="M-29 1565h158l133 186l131 -186h158l-215 290h-152zM174 0h174v1421h-174v-1421z" />
<glyph unicode="&#xcf;" horiz-adv-x="522" d="M-6 1585h188v205h-188v-205zM174 0h174v1421h-174v-1421zM340 1585h188v205h-188v-205z" />
<glyph unicode="&#xd0;" horiz-adv-x="1417" d="M35 709h131v-709h528q147 0 266 49t203 141.5t129 224.5t45 298t-45 297t-129 222t-202.5 140t-266.5 49h-528v-544h-131v-168zM340 168v541h424v168h-424v378h354q96 0 181.5 -29.5t147.5 -95t99 -169t37 -248.5q0 -143 -36 -247t-99 -169.5t-147 -97t-183 -31.5h-354z " />
<glyph unicode="&#xd1;" horiz-adv-x="1464" d="M166 0h174v1157l764 -1157h192v1421h-172v-1155l-764 1155h-194v-1421zM397 1583h99q4 37 26.5 62.5t59.5 25.5q31 0 64.5 -12t69.5 -26.5t74.5 -27t79.5 -12.5q49 0 87 18.5t65 48.5t40 68.5t17 79.5h-98q-4 -37 -26.5 -63.5t-59.5 -26.5q-31 0 -63.5 12.5t-67.5 28 t-75 27.5t-83 12q-51 0 -89 -18.5t-63.5 -48t-40 -68.5t-16.5 -80z" />
<glyph unicode="&#xd2;" horiz-adv-x="1570" d="M82 717q0 -156 55.5 -291t150.5 -235.5t224 -158t274 -57.5t274.5 57.5t224.5 158t150.5 235.5t55.5 291q0 158 -54.5 293t-149.5 234t-224.5 155.5t-276.5 56.5q-145 0 -274 -57.5t-224 -157.5t-150.5 -234.5t-55.5 -289.5zM254 717q0 121 42 225.5t114.5 182t169 121.5 t206.5 44q113 0 210.5 -44t169 -120.5t112.5 -181t41 -227.5q0 -121 -42 -225.5t-114.5 -182.5t-169 -122t-207.5 -44t-207 44t-168.5 121t-114.5 182.5t-42 226.5zM457 1847l256 -280h137l-180 280h-213z" />
<glyph unicode="&#xd3;" horiz-adv-x="1570" d="M82 717q0 -156 55.5 -291t150.5 -235.5t224 -158t274 -57.5t274.5 57.5t224.5 158t150.5 235.5t55.5 291q0 158 -54.5 293t-149.5 234t-224.5 155.5t-276.5 56.5q-145 0 -274 -57.5t-224 -157.5t-150.5 -234.5t-55.5 -289.5zM254 717q0 121 42 225.5t114.5 182t169 121.5 t206.5 44q113 0 210.5 -44t169 -120.5t112.5 -181t41 -227.5q0 -121 -42 -225.5t-114.5 -182.5t-169 -122t-207.5 -44t-207 44t-168.5 121t-114.5 182.5t-42 226.5zM731 1567h135l256 280h-213z" />
<glyph unicode="&#xd4;" horiz-adv-x="1570" d="M82 717q0 -156 55.5 -291t150.5 -235.5t224 -158t274 -57.5t274.5 57.5t224.5 158t150.5 235.5t55.5 291q0 158 -54.5 293t-149.5 234t-224.5 155.5t-276.5 56.5q-145 0 -274 -57.5t-224 -157.5t-150.5 -234.5t-55.5 -289.5zM254 717q0 121 42 225.5t114.5 182t169 121.5 t206.5 44q113 0 210.5 -44t169 -120.5t112.5 -181t41 -227.5q0 -121 -42 -225.5t-114.5 -182.5t-169 -122t-207.5 -44t-207 44t-168.5 121t-114.5 182.5t-42 226.5zM498 1565h157l131 186l132 -186h157l-215 290h-149z" />
<glyph unicode="&#xd5;" horiz-adv-x="1570" d="M82 717q0 -156 55.5 -291t150.5 -235.5t224 -158t274 -57.5t274.5 57.5t224.5 158t150.5 235.5t55.5 291q0 158 -54.5 293t-149.5 234t-224.5 155.5t-276.5 56.5q-145 0 -274 -57.5t-224 -157.5t-150.5 -234.5t-55.5 -289.5zM254 717q0 121 42 225.5t114.5 182t169 121.5 t206.5 44q113 0 210.5 -44t169 -120.5t112.5 -181t41 -227.5q0 -121 -42 -225.5t-114.5 -182.5t-169 -122t-207.5 -44t-207 44t-168.5 121t-114.5 182.5t-42 226.5zM424 1583h98q4 37 26.5 62.5t59.5 25.5q31 0 65 -12t69.5 -26.5t74.5 -27t80 -12.5q49 0 87 18.5t63.5 48.5 t40 68.5t18.5 79.5h-98q-4 -37 -27 -63.5t-59 -26.5q-31 0 -64 12.5t-67.5 28t-74.5 27.5t-83 12q-51 0 -89 -18.5t-63.5 -48t-40 -68.5t-16.5 -80z" />
<glyph unicode="&#xd6;" horiz-adv-x="1570" d="M82 717q0 -156 55.5 -291t150.5 -235.5t224 -158t274 -57.5t274.5 57.5t224.5 158t150.5 235.5t55.5 291q0 158 -54.5 293t-149.5 234t-224.5 155.5t-276.5 56.5q-145 0 -274 -57.5t-224 -157.5t-150.5 -234.5t-55.5 -289.5zM254 717q0 121 42 225.5t114.5 182t169 121.5 t206.5 44q113 0 210.5 -44t169 -120.5t112.5 -181t41 -227.5q0 -121 -42 -225.5t-114.5 -182.5t-169 -122t-207.5 -44t-207 44t-168.5 121t-114.5 182.5t-42 226.5zM520 1585h187v205h-187v-205zM866 1585h187v205h-187v-205z" />
<glyph unicode="&#xd7;" horiz-adv-x="1046" d="M31 143l119 -118l374 374l375 -374l117 118l-373 375l373 373l-117 119l-375 -375l-374 375l-119 -119l375 -373z" />
<glyph unicode="&#xd8;" horiz-adv-x="1572" d="M82 717q0 -135 41 -253t113 -214l-146 -146l82 -84l143 144q94 -88 215 -138.5t256 -50.5q145 0 274.5 57.5t224.5 158t150.5 235.5t55.5 291q0 137 -41 256t-113 213l146 145l-84 82l-139 -141q-94 88 -214 136t-260 48q-145 0 -274 -57.5t-224 -157.5t-150.5 -234.5 t-55.5 -289.5zM254 717q0 121 42 225.5t114.5 182t169 121.5t206.5 44q104 0 192.5 -35.5t160.5 -101.5l-781 -780q-49 72 -76.5 158.5t-27.5 185.5zM436 283l778 780q49 -72 77 -159t28 -187q0 -121 -42 -225.5t-114.5 -182.5t-169 -122t-207.5 -44q-102 0 -191 37 t-159 103z" />
<glyph unicode="&#xd9;" horiz-adv-x="1372" d="M141 510q0 -119 39 -217t110.5 -169t172 -110t223.5 -39q121 0 221.5 39t172 110t111.5 169t40 217v911h-174v-911q0 -80 -24.5 -146.5t-72 -115.5t-116 -77t-158.5 -28t-158.5 28t-117 77t-73 115.5t-24.5 146.5v911h-172v-911zM379 1847l256 -280h135l-178 280h-213z " />
<glyph unicode="&#xda;" horiz-adv-x="1372" d="M141 510q0 -119 39 -217t110.5 -169t172 -110t223.5 -39q121 0 221.5 39t172 110t111.5 169t40 217v911h-174v-911q0 -80 -24.5 -146.5t-72 -115.5t-116 -77t-158.5 -28t-158.5 28t-117 77t-73 115.5t-24.5 146.5v911h-172v-911zM604 1567h135l256 280h-213z" />
<glyph unicode="&#xdb;" horiz-adv-x="1372" d="M141 510q0 -119 39 -217t110.5 -169t172 -110t223.5 -39q121 0 221.5 39t172 110t111.5 169t40 217v911h-174v-911q0 -80 -24.5 -146.5t-72 -115.5t-116 -77t-158.5 -28t-158.5 28t-117 77t-73 115.5t-24.5 146.5v911h-172v-911zM403 1565h158l131 186l131 -186h158 l-213 290h-152z" />
<glyph unicode="&#xdc;" horiz-adv-x="1372" d="M141 510q0 -119 39 -217t110.5 -169t172 -110t223.5 -39q121 0 221.5 39t172 110t111.5 169t40 217v911h-174v-911q0 -80 -24.5 -146.5t-72 -115.5t-116 -77t-158.5 -28t-158.5 28t-117 77t-73 115.5t-24.5 146.5v911h-172v-911zM420 1585h188v205h-188v-205zM766 1585 h186v205h-186v-205z" />
<glyph unicode="&#xdd;" horiz-adv-x="1177" d="M8 1421l494 -807v-614h174v614l493 807h-198l-381 -647l-381 647h-201zM526 1530h138l256 280h-215z" />
<glyph unicode="&#xde;" horiz-adv-x="1273" d="M166 0h172v362h426q109 0 193.5 32t143 89.5t89.5 136.5t31 173t-31 172.5t-89.5 136t-143.5 89.5t-193 32h-426v198h-172v-1421zM338 528v527h426q125 0 204 -61.5t79 -200.5q0 -141 -79 -203t-204 -62h-426z" />
<glyph unicode="&#xdf;" horiz-adv-x="1230" d="M141 0h172v1051q0 88 24.5 147t64.5 96t90.5 53.5t103.5 16.5t103.5 -14.5t89 -44t62 -74.5t23.5 -109q0 -47 -18 -88t-54 -73.5t-88 -51t-120 -18.5h-127v-166h178q59 -2 118.5 -17.5t108 -50t78 -91t29.5 -136.5q0 -139 -88 -215t-229 -76q-51 0 -105.5 9.5t-95.5 25.5 v-170q98 -29 201 -29q111 0 200.5 33t154 93.5t99.5 145.5t35 187q0 147 -72.5 247.5t-201.5 147.5q80 45 126 119t46 174q0 88 -34 162t-93.5 127t-142.5 83t-183 30t-184 -33t-143.5 -94.5t-93.5 -149.5t-34 -196v-1051z" />
<glyph unicode="&#xe0;" horiz-adv-x="1161" d="M74 301q0 -86 33.5 -147.5t90 -101.5t131 -58.5t156.5 -18.5q123 0 214.5 38t148.5 108q2 -37 9 -67.5t17 -53.5h173q-12 31 -21.5 81t-9.5 91v582q0 147 -106.5 237t-319.5 90q-205 0 -326 -94t-131 -254h180q6 57 35 94t68 57.5t85 29t87 8.5q135 0 196.5 -42 t61.5 -106q0 -31 -17.5 -55.5t-57.5 -43t-105.5 -29.5t-161.5 -15q-205 -10 -317.5 -88t-112.5 -242zM246 301q0 33 11 63.5t43 55t86 41t140 22.5q94 6 180.5 21.5t139.5 62.5v-161q-2 -72 -32 -123.5t-79 -83t-112.5 -47t-130.5 -15.5q-51 0 -95.5 9.5t-78 30t-53 51 t-19.5 73.5zM283 1477l256 -281h135l-178 281h-213z" />
<glyph unicode="&#xe1;" horiz-adv-x="1161" d="M74 301q0 -86 33.5 -147.5t90 -101.5t131 -58.5t156.5 -18.5q123 0 214.5 38t148.5 108q2 -37 9 -67.5t17 -53.5h173q-12 31 -21.5 81t-9.5 91v582q0 147 -106.5 237t-319.5 90q-205 0 -326 -94t-131 -254h180q6 57 35 94t68 57.5t85 29t87 8.5q135 0 196.5 -42 t61.5 -106q0 -31 -17.5 -55.5t-57.5 -43t-105.5 -29.5t-161.5 -15q-205 -10 -317.5 -88t-112.5 -242zM246 301q0 33 11 63.5t43 55t86 41t140 22.5q94 6 180.5 21.5t139.5 62.5v-161q-2 -72 -32 -123.5t-79 -83t-112.5 -47t-130.5 -15.5q-51 0 -95.5 9.5t-78 30t-53 51 t-19.5 73.5zM514 1196h135l256 279h-213z" />
<glyph unicode="&#xe2;" horiz-adv-x="1161" d="M74 301q0 -86 33.5 -147.5t90 -101.5t131 -58.5t156.5 -18.5q123 0 214.5 38t148.5 108q2 -37 9 -67.5t17 -53.5h173q-12 31 -21.5 81t-9.5 91v582q0 147 -106.5 237t-319.5 90q-205 0 -326 -94t-131 -254h180q6 57 35 94t68 57.5t85 29t87 8.5q135 0 196.5 -42 t61.5 -106q0 -31 -17.5 -55.5t-57.5 -43t-105.5 -29.5t-161.5 -15q-205 -10 -317.5 -88t-112.5 -242zM246 301q0 33 11 63.5t43 55t86 41t140 22.5q94 6 180.5 21.5t139.5 62.5v-161q-2 -72 -32 -123.5t-79 -83t-112.5 -47t-130.5 -15.5q-51 0 -95.5 9.5t-78 30t-53 51 t-19.5 73.5zM291 1194h158l131 186l131 -186h157l-213 293h-151z" />
<glyph unicode="&#xe3;" horiz-adv-x="1161" d="M74 301q0 -86 33.5 -147.5t90 -101.5t131 -58.5t156.5 -18.5q123 0 214.5 38t148.5 108q2 -37 9 -67.5t17 -53.5h173q-12 31 -21.5 81t-9.5 91v582q0 147 -106.5 237t-319.5 90q-205 0 -326 -94t-131 -254h180q6 57 35 94t68 57.5t85 29t87 8.5q135 0 196.5 -42 t61.5 -106q0 -31 -17.5 -55.5t-57.5 -43t-105.5 -29.5t-161.5 -15q-205 -10 -317.5 -88t-112.5 -242zM238 1212h98q4 37 26.5 62.5t59.5 25.5q31 0 64.5 -12t69.5 -26.5t75 -26.5t80 -12q51 0 89 18.5t63.5 48t38.5 68.5t18 80h-97q-4 -37 -26.5 -62.5t-59.5 -25.5 q-31 0 -64.5 12t-68.5 27.5t-75 28t-83 12.5q-49 0 -86.5 -18.5t-64.5 -49.5t-41 -70t-16 -80zM246 301q0 33 11 63.5t43 55t86 41t140 22.5q94 6 180.5 21.5t139.5 62.5v-161q-2 -72 -32 -123.5t-79 -83t-112.5 -47t-130.5 -15.5q-51 0 -95.5 9.5t-78 30t-53 51t-19.5 73.5 z" />
<glyph unicode="&#xe4;" horiz-adv-x="1161" d="M74 301q0 -86 33.5 -147.5t90 -101.5t131 -58.5t156.5 -18.5q123 0 214.5 38t148.5 108q2 -37 9 -67.5t17 -53.5h173q-12 31 -21.5 81t-9.5 91v582q0 147 -106.5 237t-319.5 90q-205 0 -326 -94t-131 -254h180q6 57 35 94t68 57.5t85 29t87 8.5q135 0 196.5 -42 t61.5 -106q0 -31 -17.5 -55.5t-57.5 -43t-105.5 -29.5t-161.5 -15q-205 -10 -317.5 -88t-112.5 -242zM246 301q0 33 11 63.5t43 55t86 41t140 22.5q94 6 180.5 21.5t139.5 62.5v-161q-2 -72 -32 -123.5t-79 -83t-112.5 -47t-130.5 -15.5q-51 0 -95.5 9.5t-78 30t-53 51 t-19.5 73.5zM315 1217h189v202h-189v-202zM662 1217h188v202h-188v-202z" />
<glyph unicode="&#xe5;" horiz-adv-x="1161" d="M74 301q0 -86 33.5 -147.5t90 -101.5t131 -58.5t156.5 -18.5q123 0 214.5 38t148.5 108q2 -37 9 -67.5t17 -53.5h173q-12 31 -21.5 81t-9.5 91v582q0 147 -106.5 237t-319.5 90q-205 0 -326 -94t-131 -254h180q6 57 35 94t68 57.5t85 29t87 8.5q135 0 196.5 -42 t61.5 -106q0 -31 -17.5 -55.5t-57.5 -43t-105.5 -29.5t-161.5 -15q-205 -10 -317.5 -88t-112.5 -242zM246 301q0 33 11 63.5t43 55t86 41t140 22.5q94 6 180.5 21.5t139.5 62.5v-161q-2 -72 -32 -123.5t-79 -83t-112.5 -47t-130.5 -15.5q-51 0 -95.5 9.5t-78 30t-53 51 t-19.5 73.5zM387 1413q0 -41 15.5 -75.5t42 -61.5t62.5 -42t77 -15t76.5 15t61.5 42t41 61.5t15 75.5q0 82 -56 138.5t-138 56.5t-139.5 -56.5t-57.5 -138.5zM477 1413q0 43 31 74t76 31q43 0 73.5 -31t30.5 -74t-30.5 -73.5t-73.5 -30.5q-45 0 -76 30.5t-31 73.5z" />
<glyph unicode="&#xe6;" horiz-adv-x="1970" d="M74 301q0 -86 34.5 -147.5t92 -101.5t132.5 -58.5t156 -18.5q168 0 285 67t168 183q68 -115 182.5 -182.5t259.5 -67.5q184 0 313.5 91.5t184.5 261.5h-186q-41 -92 -120 -143.5t-192 -51.5q-66 0 -127 23.5t-111 68.5t-84 109.5t-42 146.5h887q0 141 -44 252t-119 188.5 t-171 118.5t-199 41q-123 0 -223 -52t-170 -144q-37 92 -134 144t-259 52q-203 0 -324 -94t-131 -254h180q6 57 35 94t68 57.5t85 29t87 8.5q135 0 196.5 -42t61.5 -106q0 -31 -17.5 -55.5t-57.5 -43t-105.5 -29.5t-161.5 -15q-205 -10 -317.5 -88t-112.5 -242zM246 301 q0 33 11 63.5t43 55t86 42t140 23.5q94 6 180.5 20.5t139.5 61.5v-161q-2 -72 -32 -122.5t-79 -83t-112.5 -48t-130.5 -15.5q-51 0 -95.5 9.5t-78 30t-53 51t-19.5 73.5zM1030 637q16 68 52 121t82 90t100.5 56.5t109.5 19.5q57 0 111.5 -20.5t99.5 -58.5t79 -91.5 t50 -116.5h-684z" />
<glyph unicode="&#xe7;" horiz-adv-x="1150" d="M72 526q0 -106 36.5 -201.5t100 -168t149.5 -119.5t185 -57l-68 -140l66 -43q16 16 35.5 21.5t37.5 5.5q39 0 60.5 -20.5t21.5 -49.5q0 -31 -25.5 -47t-60.5 -16q-39 0 -77.5 13t-69.5 42l-25 -45q33 -41 84 -63.5t99 -22.5q72 0 117.5 37t45.5 106q0 45 -21.5 76 t-53 46.5t-69.5 14.5t-71 -16l60 96q166 8 288.5 103.5t174.5 249.5h-187q-43 -86 -121.5 -136.5t-183.5 -50.5q-74 0 -138.5 30t-112.5 82t-75.5 122.5t-27.5 150.5t27.5 151t75.5 124t112.5 83.5t138.5 30.5q104 0 182 -50t123 -136h187q-27 80 -74 144.5t-110.5 110.5 t-141.5 71.5t-166 25.5q-109 0 -205 -44t-167.5 -118.5t-113.5 -176t-42 -216.5z" />
<glyph unicode="&#xe8;" horiz-adv-x="1198" d="M72 526q0 -117 42 -217t114.5 -174t171 -117t212.5 -43q184 0 313.5 91.5t184.5 261.5h-184q-43 -92 -122 -143.5t-192 -51.5q-66 0 -127 23.5t-111 68.5t-84 109.5t-42 146.5h887q0 141 -44 252t-119 188.5t-171 118.5t-199 41q-111 0 -207 -44t-167.5 -118.5 t-113.5 -176t-42 -216.5zM258 637q16 68 52 121t82 90t100.5 56.5t109.5 19.5q57 0 111.5 -20.5t99.5 -58.5t79 -91.5t50 -116.5h-684zM279 1477l253 -281h138l-178 281h-213z" />
<glyph unicode="&#xe9;" horiz-adv-x="1198" d="M72 526q0 -117 42 -217t114.5 -174t171 -117t212.5 -43q184 0 313.5 91.5t184.5 261.5h-184q-43 -92 -122 -143.5t-192 -51.5q-66 0 -127 23.5t-111 68.5t-84 109.5t-42 146.5h887q0 141 -44 252t-119 188.5t-171 118.5t-199 41q-111 0 -207 -44t-167.5 -118.5 t-113.5 -176t-42 -216.5zM258 637q16 68 52 121t82 90t100.5 56.5t109.5 19.5q57 0 111.5 -20.5t99.5 -58.5t79 -91.5t50 -116.5h-684zM543 1196h135l256 279h-213z" />
<glyph unicode="&#xea;" horiz-adv-x="1198" d="M72 526q0 -117 42 -217t114.5 -174t171 -117t212.5 -43q184 0 313.5 91.5t184.5 261.5h-184q-43 -92 -122 -143.5t-192 -51.5q-66 0 -127 23.5t-111 68.5t-84 109.5t-42 146.5h887q0 141 -44 252t-119 188.5t-171 118.5t-199 41q-111 0 -207 -44t-167.5 -118.5 t-113.5 -176t-42 -216.5zM258 637q16 68 52 121t82 90t100.5 56.5t109.5 19.5q57 0 111.5 -20.5t99.5 -58.5t79 -91.5t50 -116.5h-684zM295 1194h158l131 186l131 -186h157l-213 293h-151z" />
<glyph unicode="&#xeb;" horiz-adv-x="1198" d="M72 526q0 -117 42 -217t114.5 -174t171 -117t212.5 -43q184 0 313.5 91.5t184.5 261.5h-184q-43 -92 -122 -143.5t-192 -51.5q-66 0 -127 23.5t-111 68.5t-84 109.5t-42 146.5h887q0 141 -44 252t-119 188.5t-171 118.5t-199 41q-111 0 -207 -44t-167.5 -118.5 t-113.5 -176t-42 -216.5zM258 637q16 68 52 121t82 90t100.5 56.5t109.5 19.5q57 0 111.5 -20.5t99.5 -58.5t79 -91.5t50 -116.5h-684zM326 1217h186v202h-186v-202zM672 1217h186v202h-186v-202z" />
<glyph unicode="&#xec;" horiz-adv-x="477" d="M-96 1477l256 -281h135l-178 281h-213zM152 0h174v1055h-174v-1055z" />
<glyph unicode="&#xed;" horiz-adv-x="477" d="M152 0h174v1055h-174v-1055zM174 1196h135l256 279h-213z" />
<glyph unicode="&#xee;" horiz-adv-x="477" d="M-55 1194h157l134 186l129 -186h157l-213 293h-149zM152 0h174v1055h-174v-1055z" />
<glyph unicode="&#xef;" horiz-adv-x="477" d="M-29 1217h189v202h-189v-202zM152 0h174v1055h-174v-1055zM317 1217h189v202h-189v-202z" />
<glyph unicode="&#xf0;" horiz-adv-x="1193" d="M74 508q0 -113 40 -211t109.5 -172t165.5 -117t207 -43t206 43t164.5 117t109.5 172t40 211q0 123 -30.5 238.5t-83 222t-124 200t-153.5 172.5l137 101l-96 57l-117 -88q-41 33 -80 62.5t-80 54.5l-141 -105q82 -45 168 -110l-151 -109l94 -59l137 100 q127 -111 221 -256q-47 31 -101 47.5t-120 16.5q-111 0 -207 -43t-165.5 -117t-109.5 -173t-40 -212zM246 508q0 80 27.5 150.5t74.5 123t111.5 83t136.5 30.5t135.5 -30.5t110.5 -83t74.5 -123t27.5 -150.5t-27.5 -150.5t-74.5 -123t-110.5 -82t-135.5 -29.5t-136.5 29.5 t-111.5 82t-74.5 123t-27.5 150.5z" />
<glyph unicode="&#xf1;" d="M150 0h174v645q0 59 20.5 109.5t57 87.5t88 58.5t110.5 21.5q127 0 192.5 -79t65.5 -202v-641h172v635q0 98 -26.5 180t-79 141.5t-128 92t-171.5 32.5t-175 -37.5t-133 -103.5v115h-167v-1055zM238 1212h98q4 37 26.5 62.5t59.5 25.5q31 0 64.5 -12t69.5 -26.5t75 -26.5 t80 -12q51 0 89 18.5t63.5 48t38.5 68.5t18 80h-97q-4 -37 -26.5 -62.5t-59.5 -25.5q-31 0 -64.5 12t-68.5 27.5t-75 28t-83 12.5q-49 0 -86.5 -18.5t-64.5 -49.5t-41 -70t-16 -80z" />
<glyph unicode="&#xf2;" horiz-adv-x="1206" d="M72 524q0 -115 41 -214t112.5 -174t167.5 -118t209 -43t210 43t168 118t112 174.5t41 213.5q0 115 -41 216.5t-112 177t-168 119.5t-210 44t-209 -44t-167.5 -119.5t-112.5 -177t-41 -216.5zM248 524q0 82 27.5 155t75.5 126t112.5 85t138.5 32t138.5 -32t113.5 -85 t76.5 -126t27.5 -155q0 -80 -27.5 -151.5t-76.5 -123.5t-113.5 -83t-138.5 -31t-138.5 31t-112.5 83t-75.5 123.5t-27.5 151.5zM262 1477l256 -281h135l-178 281h-213z" />
<glyph unicode="&#xf3;" horiz-adv-x="1206" d="M72 524q0 -115 41 -214t112.5 -174t167.5 -118t209 -43t210 43t168 118t112 174.5t41 213.5q0 115 -41 216.5t-112 177t-168 119.5t-210 44t-209 -44t-167.5 -119.5t-112.5 -177t-41 -216.5zM248 524q0 82 27.5 155t75.5 126t112.5 85t138.5 32t138.5 -32t113.5 -85 t76.5 -126t27.5 -155q0 -80 -27.5 -151.5t-76.5 -123.5t-113.5 -83t-138.5 -31t-138.5 31t-112.5 83t-75.5 123.5t-27.5 151.5zM547 1196h135l256 279h-213z" />
<glyph unicode="&#xf4;" horiz-adv-x="1206" d="M72 524q0 -115 41 -214t112.5 -174t167.5 -118t209 -43t210 43t168 118t112 174.5t41 213.5q0 115 -41 216.5t-112 177t-168 119.5t-210 44t-209 -44t-167.5 -119.5t-112.5 -177t-41 -216.5zM248 524q0 82 27.5 155t75.5 126t112.5 85t138.5 32t138.5 -32t113.5 -85 t76.5 -126t27.5 -155q0 -80 -27.5 -151.5t-76.5 -123.5t-113.5 -83t-138.5 -31t-138.5 31t-112.5 83t-75.5 123.5t-27.5 151.5zM311 1194h156l133 186l131 -186h158l-213 293h-152z" />
<glyph unicode="&#xf5;" horiz-adv-x="1206" d="M72 524q0 -115 41 -214t112.5 -174t167.5 -118t209 -43t210 43t168 118t112 174.5t41 213.5q0 115 -41 216.5t-112 177t-168 119.5t-210 44t-209 -44t-167.5 -119.5t-112.5 -177t-41 -216.5zM238 1212h96q4 37 26.5 62.5t59.5 25.5q31 0 64.5 -12t70.5 -26.5t76 -26.5 t80 -12q49 0 87 18.5t64.5 48t39.5 68.5t18 80h-99q-4 -37 -26.5 -62.5t-59.5 -25.5q-31 0 -63.5 12t-68.5 27.5t-75 28t-82 12.5q-51 0 -89 -18.5t-63.5 -49.5t-39.5 -70t-16 -80zM248 524q0 82 27.5 155t75.5 126t112.5 85t138.5 32t138.5 -32t113.5 -85t76.5 -126 t27.5 -155q0 -80 -27.5 -151.5t-76.5 -123.5t-113.5 -83t-138.5 -31t-138.5 31t-112.5 83t-75.5 123.5t-27.5 151.5z" />
<glyph unicode="&#xf6;" horiz-adv-x="1206" d="M72 524q0 -115 41 -214t112.5 -174t167.5 -118t209 -43t210 43t168 118t112 174.5t41 213.5q0 115 -41 216.5t-112 177t-168 119.5t-210 44t-209 -44t-167.5 -119.5t-112.5 -177t-41 -216.5zM248 524q0 82 27.5 155t75.5 126t112.5 85t138.5 32t138.5 -32t113.5 -85 t76.5 -126t27.5 -155q0 -80 -27.5 -151.5t-76.5 -123.5t-113.5 -83t-138.5 -31t-138.5 31t-112.5 83t-75.5 123.5t-27.5 151.5zM336 1217h188v202h-188v-202zM682 1217h188v202h-188v-202z" />
<glyph unicode="&#xf7;" horiz-adv-x="409" d="M102 571h205v213h-205v-213z" />
<glyph unicode="&#xf8;" horiz-adv-x="1206" d="M72 524q0 -92 27.5 -176t78.5 -153l-94 -93l84 -84l88 88q70 -61 157 -97t189 -36q113 0 210 43t168 119t112 175t41 214q0 98 -30 186.5t-83 159.5l102 103l-84 82l-98 -99q-68 59 -154 92t-184 33q-113 0 -209 -44t-167.5 -119.5t-112.5 -177t-41 -216.5zM248 524 q0 80 27.5 152t75.5 125t112.5 83.5t138.5 30.5q61 0 115.5 -21.5t101.5 -57.5l-516 -517q-27 45 -41 97.5t-14 107.5zM377 229l518 519q29 -47 46 -104t17 -120q0 -80 -27.5 -149.5t-76.5 -121.5t-113.5 -82t-138.5 -30q-63 0 -120.5 23.5t-104.5 64.5z" />
<glyph unicode="&#xf9;" d="M145 420q0 -98 27 -179t79 -140.5t128 -92.5t172 -33q98 0 176 37t131 103v-115h168v1055h-174v-647q0 -59 -21.5 -109.5t-58.5 -87.5t-87 -57.5t-107 -20.5q-127 0 -194 76t-67 203v643h-172v-635zM266 1477l256 -281h135l-178 281h-213z" />
<glyph unicode="&#xfa;" d="M145 420q0 -98 27 -179t79 -140.5t128 -92.5t172 -33q98 0 176 37t131 103v-115h168v1055h-174v-647q0 -59 -21.5 -109.5t-58.5 -87.5t-87 -57.5t-107 -20.5q-127 0 -194 76t-67 203v643h-172v-635zM508 1196h135l256 279h-213z" />
<glyph unicode="&#xfb;" d="M145 420q0 -98 27 -179t79 -140.5t128 -92.5t172 -33q98 0 176 37t131 103v-115h168v1055h-174v-647q0 -59 -21.5 -109.5t-58.5 -87.5t-87 -57.5t-107 -20.5q-127 0 -194 76t-67 203v643h-172v-635zM295 1194h158l131 186l131 -186h157l-213 293h-151z" />
<glyph unicode="&#xfc;" d="M145 420q0 -98 27 -179t79 -140.5t128 -92.5t172 -33q98 0 176 37t131 103v-115h168v1055h-174v-647q0 -59 -21.5 -109.5t-58.5 -87.5t-87 -57.5t-107 -20.5q-127 0 -194 76t-67 203v643h-172v-635zM313 1217h187v202h-187v-202zM657 1217h189v202h-189v-202z" />
<glyph unicode="&#xfd;" horiz-adv-x="1024" d="M20 1055l404 -1049l-55 -147q-16 -47 -37 -78t-48.5 -49.5t-65.5 -25.5t-89 -3v-160q160 -16 253 45.5t148 208.5l474 1258h-187l-301 -840l-307 840h-189zM459 1165h135l256 279h-213z" />
<glyph unicode="&#xfe;" horiz-adv-x="1282" d="M150 -469h172v629q57 -78 150 -131.5t210 -53.5q113 0 209 43t166.5 119t110.5 177t40 216q0 113 -40 213.5t-110.5 176t-166.5 118.5t-209 43q-117 0 -210 -54t-150 -132v526h-172v-1890zM322 530q0 80 28.5 152t77.5 125t114.5 84t139.5 31t138.5 -31t111.5 -84 t74.5 -125t27.5 -152q0 -82 -27.5 -153.5t-74.5 -125.5t-111.5 -85t-138.5 -31t-139.5 31t-114.5 85t-77.5 126t-28.5 153z" />
<glyph unicode="&#xff;" horiz-adv-x="1024" d="M20 1055l404 -1049l-55 -147q-16 -47 -37 -78t-48.5 -49.5t-65.5 -25.5t-89 -3v-160q160 -16 253 45.5t148 208.5l474 1258h-187l-301 -840l-307 840h-189zM242 1217h188v202h-188v-202zM588 1217h188v202h-188v-202z" />
<glyph unicode="&#x152;" horiz-adv-x="2412" d="M82 717q0 -156 55.5 -291t151.5 -235.5t225 -158t274 -57.5q166 0 302.5 73t228.5 198v-246h1005v168h-839v491h766v166h-766v430h839v166h-1005v-227q-92 123 -228.5 192.5t-302.5 69.5q-145 0 -274 -57.5t-225 -157.5t-151.5 -234.5t-55.5 -289.5zM254 717 q0 121 42 225.5t113.5 182t170 121.5t208.5 44q111 0 208.5 -43t169 -119.5t112.5 -181t41 -227.5q0 -121 -42 -226.5t-113.5 -183.5t-168 -122t-207.5 -44t-209 44t-169.5 121t-113.5 182.5t-42 226.5z" />
<glyph unicode="&#x153;" horiz-adv-x="2080" d="M72 526q0 -115 41 -215t111.5 -175t166.5 -118t209 -43q154 0 268.5 75t175.5 198q66 -123 182.5 -198t268.5 -75q186 0 315 91.5t183 261.5h-185q-43 -92 -121.5 -143.5t-191.5 -51.5q-66 0 -127 23.5t-111.5 68.5t-83 109.5t-40.5 146.5h884q2 141 -42 252 t-119.5 188.5t-172 118.5t-198.5 41q-147 0 -261 -75.5t-180 -200.5q-61 125 -175.5 200.5t-268.5 75.5q-113 0 -209 -44t-166.5 -118.5t-111.5 -176t-41 -216.5zM246 526q0 82 27.5 154t75.5 125t112.5 85t138.5 32t139.5 -32t114.5 -85t76.5 -125t27.5 -154t-27.5 -152.5 t-76.5 -123.5t-114.5 -84t-139.5 -31t-138.5 31t-112.5 84t-75.5 123.5t-27.5 152.5zM1143 637q16 68 52 121t82 90t100.5 56.5t107.5 19.5q57 0 111.5 -20.5t100.5 -58.5t79.5 -91.5t50.5 -116.5h-684z" />
<glyph unicode="&#x178;" horiz-adv-x="1177" d="M8 1421l494 -807v-614h174v614l493 807h-198l-381 -647l-381 647h-201zM330 1585h188v205h-188v-205zM676 1585h186v205h-186v-205z" />
<glyph unicode="&#x2c6;" horiz-adv-x="854" d="M147 1235h148l131 166l131 -166h150l-215 260h-132z" />
<glyph unicode="&#x2dc;" horiz-adv-x="854" d="M86 1241h98q4 37 26.5 63.5t59.5 26.5q31 0 65 -12t69.5 -27.5t74.5 -28t80 -12.5q49 0 87 18.5t63.5 48.5t40 68.5t18.5 79.5h-98q-4 -37 -26.5 -62.5t-59.5 -25.5q-31 0 -64 12.5t-67.5 28t-74.5 27.5t-83 12q-51 0 -89 -18.5t-63.5 -49t-40 -69.5t-16.5 -80z" />
<glyph unicode="&#x2000;" horiz-adv-x="982" />
<glyph unicode="&#x2001;" horiz-adv-x="1964" />
<glyph unicode="&#x2002;" horiz-adv-x="982" />
<glyph unicode="&#x2003;" horiz-adv-x="1964" />
<glyph unicode="&#x2004;" horiz-adv-x="654" />
<glyph unicode="&#x2005;" horiz-adv-x="491" />
<glyph unicode="&#x2006;" horiz-adv-x="327" />
<glyph unicode="&#x2007;" horiz-adv-x="327" />
<glyph unicode="&#x2008;" horiz-adv-x="245" />
<glyph unicode="&#x2009;" horiz-adv-x="392" />
<glyph unicode="&#x200a;" horiz-adv-x="109" />
<glyph unicode="&#x2010;" horiz-adv-x="735" d="M90 481h555v168h-555v-168z" />
<glyph unicode="&#x2011;" horiz-adv-x="735" d="M90 481h555v168h-555v-168z" />
<glyph unicode="&#x2012;" horiz-adv-x="735" d="M90 481h555v168h-555v-168z" />
<glyph unicode="&#x2013;" horiz-adv-x="1292" d="M90 481h1112v168h-1112v-168z" />
<glyph unicode="&#x2014;" horiz-adv-x="1998" d="M90 481h1821v168h-1821v-168z" />
<glyph unicode="&#x2018;" horiz-adv-x="366" d="M86 963h205v211h-117v47q0 53 26.5 85.5t75.5 41.5v90q-37 -4 -70.5 -18.5t-60 -41t-43 -66.5t-16.5 -91v-258z" />
<glyph unicode="&#x2019;" horiz-adv-x="366" d="M78 1210h115v-47q0 -53 -27 -86t-76 -41v-90q37 4 71 18.5t61.5 41t44 65.5t16.5 92v258h-205v-211z" />
<glyph unicode="&#x201a;" horiz-adv-x="366" d="M78 0h115v-47q0 -53 -27 -86t-76 -41v-90q37 4 71 18.5t61.5 41t44 65.5t16.5 92v258h-205v-211z" />
<glyph unicode="&#x201c;" horiz-adv-x="688" d="M86 963h205v211h-117v47q0 53 26.5 85.5t75.5 41.5v90q-35 -4 -69.5 -18.5t-61 -41t-43 -66.5t-16.5 -91v-258zM406 963h204v211h-114v47q0 53 25.5 85.5t74.5 41.5v90q-35 -4 -69.5 -18.5t-61.5 -41t-43 -66.5t-16 -91v-258z" />
<glyph unicode="&#x201d;" horiz-adv-x="686" d="M78 1210h115v-47q0 -53 -27 -86t-76 -41v-90q37 4 71 18.5t61.5 41t44 65.5t16.5 92v258h-205v-211zM395 1210h117v-47q0 -53 -25.5 -86t-76.5 -41v-90q37 4 70.5 18.5t61 41t44 65.5t16.5 92v258h-207v-211z" />
<glyph unicode="&#x201e;" horiz-adv-x="686" d="M78 0h115v-47q0 -53 -27 -86t-76 -41v-90q37 4 71 18.5t61.5 41t44 65.5t16.5 92v258h-205v-211zM395 0h117v-47q0 -53 -25.5 -86t-76.5 -41v-90q37 4 70.5 18.5t61 41t44 65.5t16.5 92v258h-207v-211z" />
<glyph unicode="&#x2022;" horiz-adv-x="641" d="M102 748q0 -47 17.5 -87t46.5 -69t69 -46.5t87 -17.5q45 0 83.5 17.5t68.5 46.5t47.5 68.5t17.5 87.5q0 45 -17.5 83.5t-47.5 68.5t-68.5 47.5t-83.5 17.5q-47 0 -87 -17.5t-69 -47.5t-46.5 -68.5t-17.5 -83.5z" />
<glyph unicode="&#x2026;" horiz-adv-x="1728" d="M102 0h205v213h-205v-213zM762 0h205v213h-205v-213zM1421 0h205v213h-205v-213z" />
<glyph unicode="&#x202f;" horiz-adv-x="392" />
<glyph unicode="&#x2039;" horiz-adv-x="430" d="M47 545l324 -279v180l-205 168l205 164v183l-324 -279v-137z" />
<glyph unicode="&#x203a;" horiz-adv-x="430" d="M59 266l326 279v137l-326 279v-183l205 -164l-205 -168v-180z" />
<glyph unicode="&#x205f;" horiz-adv-x="491" />
<glyph unicode="&#x2122;" horiz-adv-x="1837" d="M68 1288h256v-760h141v760h252v133h-649v-133zM809 528h143v646l236 -646h143l238 646v-646h141v893h-188l-262 -719l-261 719h-190v-893z" />
<glyph unicode="&#x25fc;" horiz-adv-x="1054" d="M0 0v1055h1055v-1055h-1055z" />
</font>
</defs>
</svg>
